<svg width="74" height="123" viewBox="0 0 74 123" fill="none" xmlns="http://www.w3.org/2000/svg">
<path d="M24.7253 107.719C21.1889 105.532 20.379 102.347 20.865 98.9994C21.2969 96.0299 22.1608 93.0062 23.3756 90.2797C25.8593 84.7185 29.0178 79.5083 33.2291 74.4871C34.4709 75.243 35.7127 75.9989 36.9545 76.7548C40.3829 78.9415 43.6495 81.4521 47.2399 83.2068C53.6109 86.2843 60.063 85.7713 66.272 82.3698C72.6161 78.8874 75.2076 72.3545 72.751 65.4705C68.6746 54.1053 59.4961 49.7859 49.4806 51.8646C46.5381 52.4855 43.7034 53.7543 40.9499 55.0501C38.6552 56.103 36.6035 57.6148 33.9579 59.1805C33.202 57.9387 32.1493 56.8318 31.8793 55.536C31.2314 52.5664 30.3406 49.462 30.6645 46.5464C32.4732 30.1599 39.9241 17.1479 54.6908 8.96814C57.9843 7.13242 61.4937 5.62074 65.5161 5.91769C66.218 5.97169 67.2979 4.89177 67.6488 4.10889C68.2157 2.78609 67.4329 1.35533 66.2181 1.05838C64.0584 0.572453 61.7097 0.167568 59.55 0.437526C50.6144 1.59835 43.1636 5.9716 37.1435 12.4776C31.0155 19.0916 26.7501 26.8665 24.1315 35.5322C21.3779 44.6567 21.4859 53.5653 25.6703 62.2849C26.2102 63.4188 26.6691 64.6337 27.398 66.3344C21.4589 75.621 14.413 84.7186 11.6864 96.8397C9.66168 95.193 8.23096 93.9241 6.71919 92.7903C5.3694 91.7644 3.88462 91.7915 2.42684 92.6013C1.05006 93.3842 0.402161 95.6519 1.21204 97.3256C1.99492 98.9184 2.8318 100.511 3.93864 101.888C8.66291 107.854 13.4682 113.793 18.2734 119.732C18.7593 120.326 19.2722 120.893 19.8661 121.379C22.0798 123.215 24.9143 123.188 26.6151 120.893C31.5823 114.144 36.3605 107.26 41.1928 100.43C41.6247 99.8363 42.1647 99.0264 42.1107 98.3785C42.0027 97.1907 41.7868 95.8408 41.0579 95.0039C40.626 94.464 39.0062 94.3561 38.2773 94.761C36.4955 95.6789 34.7678 96.8127 33.364 98.2165C31.3933 100.187 29.7466 102.482 27.9109 104.587C26.939 105.613 25.8322 106.612 24.7253 107.719ZM39.8161 67.6302C43.8655 62.9329 47.7529 60.6112 52.1802 59.9633C58.1733 59.0995 63.2215 62.312 65.1382 68.1161C66.137 71.1126 65.2461 73.6233 62.5465 75.297C58.8211 77.6186 54.8798 77.8345 50.8844 76.1608C46.5921 74.4061 43.0556 71.6256 39.8161 67.6302Z" fill="#F7795B"/>
</svg>
