<svg width="74" height="123" viewBox="0 0 74 123" fill="none" xmlns="http://www.w3.org/2000/svg">
<path d="M49.4045 107.719C52.941 105.532 53.7509 102.347 53.2649 98.9994C52.833 96.0299 51.9691 93.0062 50.7542 90.2797C48.2706 84.7185 45.1121 79.5083 40.9008 74.4871C39.6589 75.243 38.4172 75.9989 37.1754 76.7548C33.7469 78.9415 30.4804 81.4521 26.89 83.2068C20.519 86.2843 14.0669 85.7713 7.85785 82.3698C1.51382 78.8874 -1.07775 72.3545 1.37888 65.4705C5.45525 54.1053 14.6338 49.7859 24.6493 51.8646C27.5918 52.4855 30.4264 53.7543 33.18 55.0501C35.4747 56.103 37.5264 57.6148 40.172 59.1805C40.9278 57.9387 41.9806 56.8318 42.2506 55.536C42.8984 52.5664 43.7893 49.462 43.4654 46.5464C41.6566 30.1599 34.2058 17.1479 19.4391 8.96814C16.1456 7.13242 12.6362 5.62074 8.61381 5.91769C7.91191 5.97169 6.83201 4.89177 6.48106 4.10889C5.91415 2.78609 6.69701 1.35533 7.91182 1.05838C10.0715 0.572453 12.4202 0.167568 14.5798 0.437526C23.5155 1.59835 30.9663 5.9716 36.9864 12.4776C43.1144 19.0916 47.3798 26.8665 49.9984 35.5322C52.752 44.6567 52.644 53.5653 48.4596 62.2849C47.9197 63.4188 47.4608 64.6337 46.7319 66.3344C52.671 75.621 59.7169 84.7186 62.4435 96.8397C64.4682 95.193 65.8989 93.9241 67.4107 92.7903C68.7605 91.7644 70.2453 91.7915 71.703 92.6013C73.0798 93.3842 73.7277 95.6519 72.9178 97.3256C72.135 98.9184 71.2981 100.511 70.1912 101.888C65.467 107.854 60.6617 113.793 55.8565 119.732C55.3705 120.326 54.8576 120.893 54.2637 121.379C52.0501 123.215 49.2155 123.188 47.5148 120.893C42.5476 114.144 37.7693 107.26 32.9371 100.43C32.5052 99.8363 31.9652 99.0264 32.0192 98.3785C32.1272 97.1907 32.3431 95.8408 33.072 95.0039C33.5039 94.464 35.1237 94.3561 35.8526 94.761C37.6343 95.6789 39.3621 96.8127 40.7659 98.2165C42.7365 100.187 44.3833 102.482 46.219 104.587C47.1908 105.613 48.2977 106.612 49.4045 107.719ZM34.3138 67.6302C30.2644 62.9329 26.377 60.6112 21.9497 59.9633C15.9566 59.0995 10.9084 62.312 8.99172 68.1161C7.99288 71.1126 8.88377 73.6233 11.5834 75.297C15.3088 77.6186 19.2501 77.8345 23.2455 76.1608C27.5378 74.4061 31.0743 71.6256 34.3138 67.6302Z" fill="#F7795B"/>
</svg>
