<svg width="117" height="76" viewBox="0 0 117 76" fill="none" xmlns="http://www.w3.org/2000/svg">
<path fill-rule="evenodd" clip-rule="evenodd" d="M36.6626 37.9929C36.8641 38.4782 37.261 38.8524 37.7499 39.0186L57.6792 45.7888C57.9288 45.8737 58.1898 45.9 58.4437 45.8697C58.6852 45.841 58.9204 45.7611 59.1332 45.6318L76.4378 35.1297C76.9008 34.8487 77.2094 34.3647 77.2752 33.8163C77.341 33.2679 77.1568 32.7157 76.7753 32.3179L53.184 7.72192C52.781 7.30205 52.2077 7.10419 51.6426 7.19218C51.0784 7.27988 50.5941 7.64177 50.3429 8.16336L36.7005 36.4912C36.475 36.9594 36.4611 37.5075 36.6626 37.9929Z" fill="#FF9D85"/>
<path fill-rule="evenodd" clip-rule="evenodd" d="M59.5559 51.1055C59.4641 50.425 59.0038 49.8514 58.3677 49.6247L5.82489 30.9006C5.09618 30.6409 4.29262 30.8905 3.83746 31.5183C3.38264 32.146 3.3808 33.0075 3.83303 33.6492L29.8263 70.5302C30.2192 71.0877 30.8625 71.3554 31.484 71.2813C31.751 71.2495 32.014 71.1545 32.2514 70.9923L58.8009 52.8351C59.3553 52.4559 59.6476 51.786 59.5559 51.1055Z" fill="#FFCEC3"/>
<path fill-rule="evenodd" clip-rule="evenodd" d="M109.277 18.4873C108.682 17.9774 107.837 17.9167 107.19 18.3371L30.7712 67.9851C30.0794 68.4345 29.7892 69.3152 30.0715 70.1107C30.3536 70.9064 31.1329 71.4009 31.9509 71.3075L91.3642 64.517L91.3727 64.516C92.0059 64.4405 92.5468 64.0269 92.7859 63.4242L109.792 20.5658C110.081 19.8382 109.872 18.997 109.277 18.4873Z" fill="#F7795B"/>
</svg>
