<svg width="192" height="115" viewBox="0 0 192 115" fill="none" xmlns="http://www.w3.org/2000/svg">
<path d="M23.9395 76.4853C27.4333 82.0672 32.4388 83.3976 37.6729 82.7013C42.316 82.0824 47.0354 80.7877 51.2828 78.9377C59.9456 75.1553 68.0456 70.3088 75.8291 63.8095C74.621 61.8497 73.4128 59.89 72.2047 57.9302C68.713 52.5174 64.7171 47.352 61.8989 41.6939C56.9546 31.6546 57.6331 21.558 62.8407 11.8982C68.1726 2.02842 78.3555 -1.90431 89.1862 2.07727C107.068 8.68294 114.012 23.144 110.95 38.792C110.034 43.3891 108.102 47.8047 106.126 52.0927C104.521 55.6667 102.193 58.8511 99.7912 62.9648C101.751 64.1729 103.505 65.8434 105.54 66.2914C110.204 67.3639 115.085 68.8196 119.645 68.3687C145.278 65.8533 165.516 54.4347 178.042 31.4627C180.853 26.3394 183.153 20.8716 182.61 14.5651C182.512 13.4647 184.183 11.794 185.402 11.2595C187.463 10.3971 189.719 11.6512 190.208 13.5598C191.011 16.9521 191.691 20.639 191.31 24.0167C189.665 37.9909 182.959 49.5771 172.885 58.8807C162.644 68.3514 150.548 74.882 137.025 78.8157C122.785 82.9519 108.829 82.6099 95.0893 75.8864C93.3028 75.0187 91.3908 74.2763 88.7126 73.1016C74.2813 82.2245 60.1675 93.0848 41.2338 97.1206C43.8525 100.324 45.8679 102.59 47.6732 104.98C49.3063 107.114 49.2927 109.439 48.0524 111.707C46.8528 113.848 43.3133 114.819 40.6759 113.518C38.1658 112.261 35.6547 110.919 33.4766 109.159C24.0397 101.643 14.6435 94.0008 5.24736 86.3586C4.30763 85.5859 3.40963 84.7715 2.63695 83.8318C-0.281453 80.3287 -0.294179 75.8892 3.26717 73.2697C13.7424 65.6199 24.4327 58.2688 35.0374 50.832C35.9594 50.167 37.2175 49.3369 38.2334 49.4341C40.0961 49.6263 42.2147 49.9906 43.5397 51.1486C44.3938 51.8356 44.5943 54.375 43.9742 55.5089C42.571 58.282 40.8285 60.9663 38.6568 63.138C35.6081 66.1866 32.0458 68.7216 28.7831 71.5562C27.195 73.0586 25.6518 74.773 23.9395 76.4853ZM86.4421 53.6247C93.7214 47.3729 97.2826 41.3286 98.2116 34.4062C99.4486 25.0354 94.3186 17.0656 85.1898 13.9507C80.4767 12.328 76.5613 13.6748 73.9919 17.871C70.4275 23.6615 70.1658 29.831 72.865 36.1218C75.6969 42.8794 80.1209 48.4728 86.4421 53.6247Z" fill="#F7795B" fill-opacity="0.3"/>
</svg>
