<svg width="45" height="86" viewBox="0 0 45 86" fill="none" xmlns="http://www.w3.org/2000/svg">
<path d="M26.8795 10.1596C24.0578 10.2603 22.4908 11.8337 21.6272 13.9265C20.8616 15.7833 20.3306 17.8133 20.107 19.7871C19.6543 23.8147 19.7174 27.8614 20.4621 32.1449C21.4488 32.1165 22.4355 32.088 23.4222 32.0595C26.1807 31.9234 28.9554 31.547 31.6606 31.7135C36.4483 32.0299 40.052 34.4463 42.5225 38.451C45.0443 42.5467 44.3215 47.171 40.5212 50.3391C34.2348 55.5628 27.3764 55.041 22.2224 50.5494C20.7116 49.2239 19.4863 47.5597 18.3177 45.9066C17.3347 44.5445 16.6514 42.9973 15.6387 41.2237C14.7699 41.6924 13.7735 41.9858 13.1709 42.6453C11.7728 44.1473 10.186 45.6473 9.37572 47.4375C4.81449 57.4947 4.7159 67.4574 10.5605 77.0335C11.8601 79.1759 13.3974 81.2021 15.8556 82.3524C16.2853 82.5519 16.5474 83.5304 16.4845 84.0978C16.3628 85.048 15.4135 85.6169 14.6 85.3892C13.1682 84.9602 11.6534 84.4222 10.4809 83.5566C5.64459 79.9499 2.77999 74.976 1.48508 69.2407C0.163946 63.4075 0.332173 57.516 1.77063 51.6512C3.28744 45.477 6.40647 40.368 11.8486 36.7076C12.5538 36.2302 13.2394 35.6794 14.2497 34.9368C13.956 27.6223 12.9491 20.0533 15.5096 12.1575C13.7587 12.4432 12.4853 12.7058 11.2108 12.8638C10.0682 13.0126 9.20771 12.5091 8.63154 11.5624C8.09356 10.6579 8.49185 9.13542 9.54039 8.435C10.5453 7.77247 11.5819 7.12771 12.7026 6.69635C17.5165 4.80348 22.3686 2.95281 27.2207 1.10214C27.709 0.918847 28.204 0.759986 28.7185 0.674533C30.645 0.341869 32.2962 1.2889 32.5054 3.1729C33.1002 8.70258 33.538 14.2481 34.026 19.7802C34.0753 20.2651 34.1138 20.9102 33.8599 21.2666C33.3892 21.9171 32.7998 22.6257 32.0857 22.8694C31.6475 23.0393 30.6616 22.5693 30.3735 22.096C29.6446 20.9804 29.0214 19.7579 28.6806 18.486C28.2021 16.7003 28.0246 14.8341 27.6715 13.0149C27.454 12.1031 27.1483 11.1625 26.8795 10.1596ZM21.9687 38.2692C22.7296 42.3125 24.2105 44.9307 26.5818 46.7597C29.7962 49.2279 33.8553 49.0316 36.969 46.3097C38.582 44.9075 38.9213 43.1649 37.914 41.3112C36.528 38.7463 34.2932 37.3264 31.3786 36.9801C28.2623 36.5829 25.2369 37.0265 21.9687 38.2692Z" fill="#F7795B" fill-opacity="0.3"/>
</svg>
