<svg width="40" height="40" viewBox="0 0 40 40" fill="none" xmlns="http://www.w3.org/2000/svg">
<mask id="mask0_38_3107" style="mask-type:alpha" maskUnits="userSpaceOnUse" x="0" y="0" width="40" height="40">
<rect width="40" height="40" fill="#D9D9D9"/>
</mask>
<g mask="url(#mask0_38_3107)">
<path d="M7.792 35C7.042 35 6.389 34.7223 5.833 34.167C5.27767 33.611 5 32.958 5 32.208V10.75C5 10.3333 5.04867 9.97233 5.146 9.667C5.24333 9.361 5.403 9.06933 5.625 8.792L7.958 5.75C8.18067 5.472 8.44467 5.27767 8.75 5.167C9.05533 5.05567 9.41633 5 9.833 5H30.167C30.5837 5 30.9377 5.05567 31.229 5.167C31.521 5.27767 31.778 5.472 32 5.75L34.375 8.792C34.597 9.06933 34.7567 9.361 34.854 9.667C34.9513 9.97233 35 10.3333 35 10.75V32.208C35 32.958 34.7223 33.611 34.167 34.167C33.611 34.7223 32.958 35 32.208 35H7.792ZM8.458 9.625H31.5L30 7.792H9.958L8.458 9.625ZM7.792 12.375V32.208H32.208V12.375H7.792ZM20 29.167L26.542 22.625L24.667 20.708L21.375 24V16.083H18.625V24L15.333 20.708L13.458 22.625L20 29.167Z" fill="#F7795B"/>
</g>
</svg>
