<svg width="766" height="765" viewBox="0 0 766 765" fill="none" xmlns="http://www.w3.org/2000/svg">
<mask id="mask0_44_378" style="mask-type:alpha" maskUnits="userSpaceOnUse" x="0" y="0" width="766" height="765">
<rect x="0.48584" y="279.964" width="559.727" height="559.727" transform="rotate(-30 0.48584 279.964)" fill="#D9D9D9"/>
</mask>
<g mask="url(#mask0_44_378)">
<path d="M364.982 608.108C334.349 625.794 302.058 630.299 268.108 621.623C234.145 612.955 208.321 593.305 190.635 562.672C175.476 536.416 169.879 508.453 173.845 478.785C177.811 449.116 190.934 424.035 213.213 403.542C204.943 376.001 205.936 344.683 216.194 309.587C226.452 274.49 244.541 249.46 270.461 234.495C281.569 228.081 293.364 226.541 305.844 229.874C318.32 233.228 327.764 240.459 334.177 251.568L404.726 373.762L418.968 323.798L463.569 335.749L429.424 463.183L301.99 429.037L313.941 384.435L364.331 397.084L293.783 274.889C270.92 294.373 258.2 318.207 255.621 346.392C253.051 374.591 257.888 399.293 270.132 420.501L260.033 426.331C240.509 437.604 227.83 454.125 221.997 475.895C216.164 497.664 218.883 518.312 230.155 537.836C241.428 557.36 257.949 570.039 279.719 575.872C301.489 581.705 322.136 578.985 341.66 567.713L584.029 427.781C598.167 419.619 607.299 407.838 611.425 392.44C615.551 377.042 613.533 362.274 605.37 348.135C597.207 333.997 585.427 324.865 570.029 320.739C554.63 316.613 539.862 318.632 525.724 326.794L495.428 344.286L472.106 303.891C462.777 287.733 450.375 274.804 434.9 265.103C419.433 255.415 402.822 249.189 385.067 246.423L357.955 199.464C389.668 196.864 419.42 202.918 447.211 217.627C474.995 232.322 496.758 253.302 512.501 280.569C537.283 269.852 562.338 268.735 587.666 277.217C612.988 285.721 632.355 301.586 645.765 324.813C660.341 350.06 663.9 376.623 656.441 404.502C648.961 432.375 632.598 453.6 607.351 468.176L364.982 608.108Z" fill="#B888F1" fill-opacity="0.09"/>
</g>
</svg>
