<svg width="40" height="40" viewBox="0 0 40 40" fill="none" xmlns="http://www.w3.org/2000/svg">
<mask id="mask0_38_3131" style="mask-type:alpha" maskUnits="userSpaceOnUse" x="0" y="0" width="40" height="40">
<rect width="40" height="40" fill="#D9D9D9"/>
</mask>
<g mask="url(#mask0_38_3131)">
<path d="M19.8313 33.4841C19.9447 33.4841 20.0639 33.4591 20.1888 33.4093C20.3137 33.3588 20.4102 33.2837 20.4784 33.184L31.8642 20.6432C32.1598 20.3176 32.3758 19.9547 32.5121 19.5546C32.6485 19.1539 32.7166 18.7532 32.7166 18.3525C32.7166 17.9272 32.6485 17.5142 32.5121 17.1135C32.3758 16.7134 32.1598 16.3505 31.8642 16.0249L25.8649 9.41704C25.5693 9.09143 25.2396 8.85354 24.8758 8.70335C24.5125 8.55317 24.1376 8.47807 23.7509 8.47807C23.3876 8.47807 23.0241 8.55317 22.6603 8.70335C22.2965 8.85354 21.9671 9.09143 21.672 9.41704L21.1607 9.98024L23.8196 12.9837C24.1376 13.3339 24.3988 13.7406 24.6034 14.2038C24.8079 14.6669 24.9102 15.1614 24.9102 15.687C24.9102 16.6632 24.5807 17.5142 23.9219 18.2399C23.2625 18.9662 22.4784 19.3293 21.5698 19.3293C21.0467 19.3293 20.5921 19.2353 20.206 19.0473C19.8198 18.8598 19.4675 18.5907 19.149 18.2399L16.6267 15.4996L10.5252 22.2201C10.4341 22.3204 10.3659 22.4331 10.3207 22.558C10.2748 22.683 10.2519 22.8206 10.2519 22.9707C10.2519 23.2465 10.3373 23.4781 10.508 23.6655C10.6782 23.8535 10.8884 23.9476 11.1388 23.9476C11.2751 23.9476 11.4 23.9163 11.5135 23.8538C11.6269 23.7908 11.7177 23.7217 11.7859 23.6466L16.4901 18.4652L18.0584 20.2304L13.4221 25.374C13.3316 25.4743 13.2634 25.587 13.2176 25.7119C13.1723 25.8369 13.1497 25.9745 13.1497 26.1247C13.1497 26.3752 13.2405 26.6004 13.4221 26.8005C13.6043 27.0011 13.8203 27.1015 14.0701 27.1015C14.1835 27.1015 14.2973 27.0762 14.4112 27.0258C14.5247 26.9759 14.6155 26.9008 14.6837 26.8005L19.3879 21.6569L20.9562 23.4213L16.3199 28.5658C16.2288 28.6409 16.1607 28.7472 16.1154 28.8848C16.0701 29.0223 16.0475 29.1662 16.0475 29.3164C16.0475 29.5669 16.1383 29.7922 16.3199 29.9923C16.5015 30.1923 16.7175 30.2923 16.9679 30.2923C17.0813 30.2923 17.1893 30.2737 17.2918 30.2365C17.3938 30.1986 17.4904 30.1172 17.5814 29.9923L22.2856 24.8487L23.8531 26.6131L19.1833 31.7566C19.0922 31.8822 19.0241 32.0075 18.9788 32.1324C18.9335 32.2574 18.9109 32.3826 18.9109 32.5082C18.9109 32.8085 18.996 33.0461 19.1661 33.221C19.3369 33.3964 19.5586 33.4841 19.8313 33.4841ZM19.8313 36C19.0355 36 18.3366 35.6933 17.7344 35.08C17.1323 34.4666 16.7745 33.7094 16.6611 32.8082C15.8882 32.6833 15.2405 32.3328 14.718 31.7566C14.195 31.1811 13.8767 30.4677 13.7633 29.6165C12.9904 29.4915 12.3485 29.135 11.8374 28.5469C11.3258 27.9587 11.0133 27.2517 10.8999 26.4256C10.0365 26.3001 9.33209 25.912 8.78668 25.2614C8.24127 24.6108 7.96856 23.8349 7.96856 22.9338C7.96856 22.4832 8.04792 22.039 8.20664 21.601C8.3659 21.1625 8.59333 20.7681 8.88895 20.4179L16.6267 11.9321L20.615 16.325C20.7514 16.4752 20.9046 16.5941 21.0748 16.6818C21.2455 16.7696 21.4217 16.8134 21.6033 16.8134C21.8537 16.8134 22.0923 16.6945 22.3192 16.4566C22.5466 16.2187 22.6603 15.9622 22.6603 15.687C22.6603 15.5368 22.6262 15.3866 22.5581 15.2365C22.4899 15.0863 22.3876 14.9361 22.2513 14.7859L17.3769 9.41704C17.0813 9.09143 16.7516 8.85354 16.3878 8.70335C16.0246 8.55317 15.6496 8.47807 15.2629 8.47807C14.8997 8.47807 14.5361 8.55317 14.1724 8.70335C13.8086 8.85354 13.4791 9.09143 13.1841 9.41704L8.13873 14.9733C7.86603 15.2989 7.6615 15.6368 7.52514 15.9871C7.38879 16.3379 7.30916 16.726 7.28625 17.1513C7.26389 17.5767 7.32089 17.996 7.45724 18.4093C7.59359 18.822 7.77522 19.2038 8.00211 19.5546L6.36587 21.3568C5.93445 20.806 5.59357 20.1551 5.34322 19.4041C5.09342 18.6532 4.97998 17.8896 5.00289 17.1135C5.02525 16.3878 5.16733 15.687 5.42913 15.0112C5.69038 14.3353 6.05962 13.7346 6.53686 13.2089L11.5814 7.65175C12.0815 7.10147 12.6553 6.68845 13.3027 6.41271C13.9506 6.13757 14.6155 6 15.2973 6C15.979 6 16.6382 6.13757 17.2747 6.41271C17.9106 6.68845 18.4787 7.10147 18.9788 7.65175L19.5245 8.25279L20.0693 7.65175C20.5695 7.10147 21.1435 6.68845 21.7915 6.41271C22.4389 6.13757 23.1035 6 23.7852 6C24.467 6 25.1261 6.13757 25.7626 6.41271C26.3986 6.68845 26.9666 7.10147 27.4668 7.65175L33.466 14.2605C33.9662 14.8108 34.3469 15.4428 34.6081 16.1565C34.8694 16.8696 35 17.6016 35 18.3525C35 19.1034 34.8694 19.8294 34.6081 20.5305C34.3469 21.2316 33.9662 21.8573 33.466 22.4075L22.0811 34.9484C21.7855 35.274 21.4389 35.5305 21.0413 35.718C20.6437 35.906 20.2403 36 19.8313 36Z" fill="#65B895"/>
</g>
</svg>
