<svg width="40" height="40" viewBox="0 0 40 40" fill="none" xmlns="http://www.w3.org/2000/svg">
<mask id="mask0_38_3119" style="mask-type:alpha" maskUnits="userSpaceOnUse" x="0" y="0" width="40" height="40">
<rect width="40" height="40" fill="#D9D9D9"/>
</mask>
<g mask="url(#mask0_38_3119)">
<path d="M24.4999 25.667H30.5001V19H28.737V23.708H24.4999V25.667ZM9.49991 15.667H11.263V10.958H15.5001V9H9.49991V15.667ZM14.2626 34V30.667H7.51275C6.83776 30.667 6.25037 30.389 5.75058 29.833C5.25019 29.2777 5 28.625 5 27.875V6.792C5 6.042 5.25019 5.389 5.75058 4.833C6.25037 4.27767 6.83776 4 7.51275 4H32.4873C33.1622 4 33.7496 4.27767 34.2494 4.833C34.7498 5.389 35 6.042 35 6.792V27.875C35 28.625 34.7498 29.2777 34.2494 29.833C33.7496 30.389 33.1622 30.667 32.4873 30.667H25.7374V34H14.2626ZM7.51275 27.875H32.4873V6.792H7.51275V27.875Z" fill="#B888F1"/>
</g>
</svg>
