<svg width="18" height="19" viewBox="0 0 18 19" fill="none" xmlns="http://www.w3.org/2000/svg">
<path d="M16.4802 0.857916C17.3296 0.856771 17.8948 1.66824 17.7795 2.50978C17.6647 3.34793 16.8881 3.87356 16.0842 4.13718C15.7432 4.24903 15.4611 4.42268 15.2381 4.65814C14.7461 5.17747 14.4454 5.87447 14.3361 6.74914C14.295 7.07774 14.2655 7.41598 14.2476 7.76387C14.1952 8.78045 15.0512 9.57814 16.0692 9.57814C17.1273 9.57814 17.9851 10.4359 17.9851 11.494V14.7236C17.9851 16.6597 16.4156 18.2291 14.4796 18.2291C12.5435 18.2291 10.9741 16.6597 10.9741 14.7236V7.93814C10.9741 5.42347 11.6027 3.53747 12.8601 2.28014C13.8268 1.33394 15.0335 0.859866 16.4802 0.857916ZM6.06616 0.857916C6.91555 0.856771 7.48077 1.66824 7.36549 2.50978C7.25068 3.34794 6.47411 3.87356 5.67024 4.13718C5.32919 4.24903 5.04712 4.42268 4.82406 4.65814C4.33206 5.17747 4.03139 5.87447 3.92206 6.74914C3.88098 7.07774 3.85148 7.41598 3.83355 7.76387C3.78117 8.78045 4.63725 9.57814 5.65518 9.57814C6.71329 9.57814 7.57106 10.4359 7.57106 11.494V14.7236C7.57106 16.6597 6.00159 18.2291 4.06556 18.2291C2.12952 18.2291 0.560059 16.6597 0.560059 14.7236V7.93814C0.560059 5.42347 1.18873 3.53747 2.44606 2.28014C3.41283 1.33394 4.61953 0.859867 6.06616 0.857916Z" fill="white"/>
</svg>
