<svg width="40" height="40" viewBox="0 0 40 40" fill="none" xmlns="http://www.w3.org/2000/svg">
<mask id="mask0_38_3125" style="mask-type:alpha" maskUnits="userSpaceOnUse" x="0" y="0" width="40" height="40">
<rect width="40" height="40" fill="#D9D9D9"/>
</mask>
<g mask="url(#mask0_38_3125)">
<path d="M9.55778 35C8.28681 35 7.20944 34.5998 6.32566 33.7994C5.44189 32.9996 5 32.0247 5 30.8745V26.2621H10.1793V5L12.6656 7.24996L15.1101 5L17.5963 7.24996L20.0825 5L22.5688 7.24996L25.055 5L27.5413 7.24996L30.0275 5L32.5138 7.24996L35 5V30.8745C35 32.0247 34.5581 32.9996 33.6743 33.7994C32.7906 34.5998 31.7132 35 30.4422 35H9.55778ZM30.4422 32.4873C30.9673 32.4873 31.3956 32.3373 31.7271 32.0373C32.0586 31.7373 32.2244 31.3497 32.2244 30.8745V9.01302H12.9142V26.2621H28.6601V30.8745C28.6601 31.3497 28.8258 31.7373 29.1573 32.0373C29.4888 32.3373 29.9171 32.4873 30.4422 32.4873ZM14.945 14.9376V12.4627H24.8899V14.9376H14.945ZM14.945 19.8128V17.3001H24.8899V19.8128H14.945ZM28.5775 14.9376C28.191 14.9376 27.8595 14.8188 27.583 14.5812C27.3066 14.3436 27.1683 14.0499 27.1683 13.7001C27.1683 13.3503 27.3066 13.0566 27.583 12.819C27.8595 12.5814 28.191 12.4627 28.5775 12.4627C28.9369 12.4627 29.2545 12.5814 29.5303 12.819C29.8067 13.0566 29.945 13.3503 29.945 13.7001C29.945 14.0499 29.8067 14.3436 29.5303 14.5812C29.2545 14.8188 28.9369 14.9376 28.5775 14.9376ZM28.5775 19.6625C28.191 19.6625 27.8595 19.5437 27.583 19.3061C27.3066 19.0685 27.1683 18.7748 27.1683 18.425C27.1683 18.0752 27.3066 17.7815 27.583 17.5439C27.8595 17.3064 28.191 17.1876 28.5775 17.1876C28.9369 17.1876 29.2545 17.3064 29.5303 17.5439C29.8067 17.7815 29.945 18.0752 29.945 18.425C29.945 18.7748 29.8067 19.0685 29.5303 19.3061C29.2545 19.5437 28.9369 19.6625 28.5775 19.6625ZM9.51601 32.4873H25.8844V28.737H7.77564V30.8745C7.77564 31.3497 7.94139 31.7373 8.27289 32.0373C8.60439 32.3373 9.01876 32.4873 9.51601 32.4873Z" fill="#B1A8B9"/>
</g>
</svg>
