<svg width="211" height="44" viewBox="0 0 211 44" fill="none" xmlns="http://www.w3.org/2000/svg">
<rect width="211" height="44" fill="#CDCDCD"/>
<g clip-path="url(#clip0_152_2247)">
<rect x="-42" y="-35" width="1440" height="7416" fill="#F3F4F6"/>
<mask id="path-3-inside-1_152_2247" fill="white">
<path d="M-42 -35H1398V79H-42V-35Z"/>
</mask>
<path d="M1398 78.5H-42V79.5H1398V78.5Z" fill="#D1D5DB" mask="url(#path-3-inside-1_152_2247)"/>
<path d="M42.7325 14.2344C42.7261 14.1561 42.7088 14.0791 42.6811 14.0056C42.6746 13.9797 42.6652 13.9546 42.6531 13.9308C42.6112 13.8409 42.5543 13.7588 42.485 13.6879L29.6846 0.874665C29.6001 0.789905 29.4996 0.722735 29.389 0.677034C29.2784 0.631334 29.1598 0.608007 29.0401 0.608403L13.69 0.608403C13.5844 0.609092 13.4798 0.629694 13.3818 0.66913L13.2977 0.7065C13.2292 0.739056 13.1649 0.779841 13.1063 0.827952L13.0642 0.874665L0.254529 13.6879C0.18285 13.7614 0.124396 13.8468 0.0817406 13.9402L0.0490509 14.0289C0.0241599 14.0998 0.00846521 14.1736 0.00235131 14.2485C0.000355594 14.2733 0.000355594 14.2983 0.00235131 14.3232L0.00235131 29.6683C-0.000783769 29.6946 -0.000783769 29.7213 0.00235131 29.7477C0.0115034 29.8271 0.0287154 29.9053 0.0537208 29.9812L0.0770706 30.0373C0.119979 30.1319 0.178377 30.2188 0.249859 30.2942L13.0642 43.1168C13.0821 43.1352 13.1026 43.1509 13.1249 43.1635C13.1852 43.213 13.2511 43.2553 13.3211 43.2896L13.3958 43.3223C13.4946 43.3582 13.5988 43.3772 13.704 43.3784H29.0401C29.1595 43.3794 29.2779 43.3568 29.3885 43.3119C29.4991 43.267 29.5997 43.2007 29.6846 43.1168L42.485 30.3129C42.5521 30.2377 42.6072 30.1526 42.6484 30.0606C42.6617 30.0391 42.6712 30.0154 42.6764 29.9906L42.4242 29.8878L42.6811 29.9766C42.706 29.9057 42.7217 29.8319 42.7278 29.757C42.7296 29.7306 42.7296 29.704 42.7278 29.6776V14.3139C42.7325 14.2877 42.7341 14.261 42.7325 14.2344ZM40.9159 15.2294V28.7761L27.3963 28.7761V15.2294H40.9159ZM25.5704 14.6922V29.2899L21.3674 33.494L17.1644 29.2899V14.6922L21.3674 10.4881L25.5704 14.6922ZM3.10787 13.403L13.69 2.81323L20.0692 9.19884L15.8662 13.403H3.10787ZM15.8662 30.5838L20.0692 34.788L13.69 41.1689L3.10787 30.5838H15.8662ZM15.3385 15.2294L15.3385 28.7761H1.79562L1.79562 15.2294H15.3385Z" fill="#7E39C4"/>
<path d="M65.9703 33.8843C64.04 33.9158 62.1399 33.4026 60.4877 32.4036C58.9405 31.4149 57.7076 30.005 56.9339 28.3396C56.8872 28.2415 56.8405 28.1434 56.7985 28.0406C55.3564 24.5845 55.2978 20.7061 56.635 17.208V17.1566C56.7284 16.9277 56.8312 16.6895 56.9339 16.4886C57.7251 14.8276 58.9743 13.4273 60.5344 12.4526C62.2091 11.5006 64.1024 11 66.0286 11C67.9549 11 69.8481 11.5006 71.5228 12.4526C73.0957 13.4107 74.3627 14.7979 75.1747 16.4512C75.2868 16.6708 75.3802 16.8903 75.4736 17.1099L75.5156 17.208C75.7803 17.8976 75.9788 18.6109 76.1087 19.3381H72.0739C72.0739 19.3007 72.0739 19.2633 72.0412 19.2306C71.9609 18.9297 71.8643 18.6334 71.7517 18.3431C71.7517 18.2777 71.6956 18.1936 71.6583 18.1142C71.6369 18.0268 71.5988 17.9443 71.5462 17.8713C71.4935 17.74 71.4326 17.612 71.3641 17.4882C71.3017 17.364 71.2315 17.2439 71.1539 17.1286C71.1261 17.0797 71.0949 17.0329 71.0605 16.9884C71.0054 16.8922 70.9413 16.8015 70.869 16.7175C70.7988 16.6122 70.7207 16.5122 70.6355 16.4185C70.5621 16.3275 70.4842 16.2402 70.402 16.1569C70.3233 16.0704 70.2374 15.9907 70.1452 15.9187C69.9876 15.7452 69.8123 15.5886 69.6222 15.4516C69.0283 15.0179 68.3483 14.7169 67.6281 14.5687L67.4833 14.536C67.3294 14.5001 67.1735 14.4736 67.0163 14.4566C66.7259 14.4114 66.4323 14.3896 66.1384 14.3912H65.9656C65.6686 14.3903 65.372 14.4122 65.0783 14.4566C64.9211 14.4728 64.7651 14.4994 64.6113 14.536L64.4852 14.564C63.7564 14.7129 63.0683 15.0173 62.4678 15.4563C62.176 15.6713 61.9041 15.9121 61.6552 16.1756L61.4217 16.4419C61.3423 16.5353 61.2629 16.6381 61.1882 16.7408C61.1257 16.8198 61.0679 16.9025 61.0154 16.9884C60.9823 17.0328 60.9526 17.0796 60.9267 17.1286C60.8753 17.2033 60.824 17.2967 60.7679 17.3948C60.7317 17.4488 60.702 17.5068 60.6792 17.5677C60.6191 17.6746 60.566 17.7854 60.5204 17.8993C60.4455 18.0416 60.383 18.1901 60.3336 18.3431C59.8632 19.6411 59.6276 21.0125 59.6378 22.3931C59.6378 24.7567 60.2029 26.6906 61.277 28.1574C61.7952 28.8541 62.4694 29.4198 63.2455 29.8091C64.0215 30.1985 64.8779 30.4007 65.7461 30.3996H66.3532C67.222 30.4003 68.0789 30.198 68.8557 29.8087C69.6324 29.4194 70.3075 28.8539 70.827 28.1574C71.3899 27.3845 71.8032 26.5131 72.0459 25.5882C72.0459 25.5882 72.0692 25.4994 72.0739 25.4901H76.1087C75.9594 26.2357 75.7373 26.9648 75.4456 27.6669C75.4082 27.7837 75.3709 27.8631 75.3382 27.9425L75.3008 28.0219C75.2588 28.1247 75.2168 28.2228 75.1654 28.3209C74.3919 29.985 73.1609 31.3946 71.6162 32.3849C69.9628 33.3848 68.0609 33.898 66.129 33.8657L65.9703 33.8843Z" fill="#7E39C4"/>
<path d="M111.535 34.1008C109.551 34.1469 107.591 33.6632 105.856 32.6994C104.248 31.7677 102.936 30.3991 102.073 28.7522C101.139 26.9219 100.672 24.8886 100.714 22.8338C100.661 20.6902 101.121 18.565 102.055 16.635C102.882 14.9653 104.17 13.5679 105.767 12.6084C107.457 11.6355 109.38 11.1428 111.329 11.1837C113.316 11.1244 115.276 11.656 116.961 12.7112C118.536 13.7721 119.745 15.2922 120.426 17.0648C121.206 19.137 121.525 21.3544 121.36 23.5625H104.716L104.745 23.8941C104.81 25.569 105.382 27.1846 106.384 28.528C107.528 29.9294 109.186 30.6581 111.329 30.6581C112.616 30.6873 113.885 30.3521 114.99 29.6912C116.005 29.0753 116.817 28.1756 117.325 27.1033H120.996C120.433 29.2947 119.109 31.214 117.26 32.5173C115.544 33.5864 113.556 34.1364 111.535 34.1008ZM111.493 14.3788C109.246 14.3788 107.528 15.1075 106.384 16.5369C105.535 17.6801 105.003 19.0273 104.843 20.4421L104.791 20.7924H117.573L117.531 20.4514C117.434 18.9817 116.94 17.5658 116.102 16.3547C115.088 15.0421 113.538 14.3788 111.493 14.3788Z" fill="#7E39C4"/>
<path d="M201.132 34.1008C199.148 34.1463 197.188 33.6626 195.454 32.6994C193.845 31.7677 192.533 30.3991 191.671 28.7522C190.736 26.9219 190.269 24.8886 190.312 22.8338C190.259 20.6902 190.718 18.565 191.652 16.635C192.481 14.9664 193.769 13.5693 195.365 12.6084C197.054 11.6355 198.978 11.1428 200.927 11.1837C202.914 11.1244 204.874 11.656 206.559 12.7112C208.133 13.7721 209.343 15.2922 210.024 17.0648C210.804 19.137 211.123 21.3544 210.958 23.5625H194.314L194.342 23.8941C194.408 25.569 194.979 27.1846 195.981 28.528C197.125 29.9294 198.783 30.6581 200.927 30.6581C202.214 30.6873 203.483 30.3521 204.588 29.6912C205.601 29.0739 206.413 28.1746 206.923 27.1033H210.603C210.04 29.2947 208.716 31.214 206.867 32.5173C205.148 33.5882 203.157 34.1382 201.132 34.1008ZM201.09 14.3788C198.844 14.3788 197.125 15.1075 195.981 16.5369C195.133 17.6801 194.601 19.0273 194.44 20.4421L194.389 20.7924H207.17L207.133 20.4514C207.033 18.9816 206.537 17.5662 205.699 16.3547C204.686 15.0421 203.131 14.3788 201.09 14.3788Z" fill="#7E39C4"/>
<path d="M124.62 43.3915V11.7905H127.889V14.2429L128.412 13.6871C129.224 12.8315 130.212 12.1625 131.307 11.7262C132.403 11.2899 133.581 11.0967 134.758 11.1599C136.618 11.1146 138.447 11.6324 140.007 12.6454C141.497 13.6627 142.678 15.0702 143.421 16.714C144.251 18.565 144.664 20.576 144.631 22.6045C144.66 24.6315 144.25 26.6409 143.43 28.4949C142.709 30.1433 141.554 31.5643 140.087 32.6056C138.546 33.6239 136.73 34.1456 134.884 34.1004C133.038 34.1621 131.219 33.6354 129.691 32.5963C129.428 32.4002 129.175 32.1897 128.935 31.9657L128.426 31.4985V43.3915H124.62ZM134.114 14.4625C132.858 14.416 131.622 14.7854 130.597 15.5135C129.642 16.259 128.93 17.272 128.552 18.4237C128.099 19.7782 127.882 21.2 127.907 22.6278C127.883 24.0548 128.098 25.4758 128.543 26.832C128.92 27.9937 129.64 29.0145 130.607 29.7608C131.673 30.5109 132.956 30.8885 134.259 30.8352C135.552 30.8821 136.823 30.4885 137.864 29.7188C138.836 28.9463 139.571 27.9149 139.984 26.7432C140.459 25.4287 140.693 24.0394 140.675 22.6418C140.692 21.2535 140.458 19.8735 139.984 18.5685C139.563 17.3964 138.816 16.3689 137.831 15.6069C136.754 14.8213 135.446 14.4184 134.114 14.4625Z" fill="#7E39C4"/>
<path d="M147.858 33.4796V11.7909H151.089V16.2333L151.659 15.215C151.815 14.9338 151.988 14.6624 152.177 14.4022C152.576 13.8555 153.066 13.3814 153.625 13.0008C154.177 12.595 154.79 12.2797 155.442 12.0665C156.109 11.8468 156.801 11.7119 157.501 11.6648C157.702 11.6648 157.893 11.6648 158.09 11.6648C158.49 11.6638 158.889 11.6935 159.285 11.7536V15.4906C158.842 15.405 158.391 15.3628 157.94 15.3645C157.679 15.3645 157.412 15.3645 157.132 15.4018C156.217 15.485 155.335 15.7896 154.564 16.2894C153.859 16.7355 153.259 17.3301 152.808 18.0317C152.373 18.7264 152.057 19.489 151.874 20.288C151.687 21.1331 151.595 21.9963 151.598 22.8618V33.4796H147.858Z" fill="#7E39C4"/>
<path d="M162.503 33.4794V11.7908H166.267V33.4794H162.503ZM162.503 7.52597V3.94312H166.267V7.52597H162.503Z" fill="#7E39C4"/>
<path d="M178.941 34.077C176.307 34.077 174.135 33.4931 172.491 32.3346C171.649 31.6947 170.949 30.8868 170.435 29.9621C169.922 29.0374 169.606 28.016 169.507 26.9627H173.374C173.669 28.125 174.37 29.1437 175.349 29.8355C176.513 30.57 177.869 30.9378 179.244 30.8912C180.426 30.9545 181.597 30.644 182.593 30.0037C182.998 29.7242 183.327 29.3471 183.549 28.9072C183.771 28.4672 183.879 27.9784 183.863 27.4858C183.884 26.9284 183.72 26.3796 183.396 25.9257C182.897 25.404 182.269 25.025 181.574 24.8279C180.72 24.5103 179.398 24.1085 177.647 23.6414C176.099 23.2718 174.593 22.7427 173.155 22.0625C172.242 21.6555 171.457 21.01 170.88 20.194C170.416 19.4024 170.184 18.4956 170.212 17.5781C170.189 16.3807 170.546 15.2066 171.231 14.2242C171.968 13.2253 172.972 12.4533 174.126 11.996C175.542 11.4333 177.057 11.1601 178.581 11.1925C180.099 11.1685 181.608 11.4349 183.027 11.9773C184.233 12.4383 185.305 13.1929 186.146 14.1728C186.981 15.2579 187.506 16.5496 187.664 17.9098L183.928 17.9378C183.732 16.8594 183.149 15.8895 182.289 15.2098C181.199 14.4734 179.911 14.0856 178.595 14.098C177.394 14.0503 176.208 14.3857 175.209 15.0556C174.819 15.3007 174.496 15.64 174.271 16.0424C174.046 16.4448 173.925 16.8974 173.92 17.3586C173.91 17.8991 174.105 18.4235 174.467 18.8253C175.017 19.3299 175.677 19.6979 176.396 19.8997C177.297 20.2174 178.637 20.6004 180.388 21.0442C181.907 21.3987 183.38 21.9269 184.778 22.6184C185.694 23.054 186.47 23.7367 187.02 24.5897C187.49 25.4335 187.723 26.3893 187.692 27.3551C187.73 28.2986 187.54 29.2374 187.139 30.092C186.737 30.9466 186.136 31.6918 185.385 32.2645C183.849 33.465 181.677 34.077 178.941 34.077Z" fill="#7E39C4"/>
<path d="M88.5354 34.101C86.8881 34.1309 85.2592 33.7504 83.7954 32.9939C82.4483 32.2778 81.3288 31.1984 80.5638 29.8782C79.7656 28.443 79.3642 26.8209 79.401 25.1789V11.8191H83.1697V25.0061C83.1556 25.8348 83.3147 26.6574 83.6367 27.4211C83.9191 28.0791 84.3377 28.6697 84.8649 29.1541C85.3686 29.6125 85.955 29.9708 86.5927 30.2098C87.2175 30.4419 87.8783 30.5621 88.5448 30.5648C89.9085 30.5712 91.2261 30.0719 92.2434 29.1635C92.7682 28.679 93.1837 28.0882 93.4622 27.4304C93.7806 26.6705 93.9396 25.8533 93.9292 25.0294V11.7817H97.6979V25.1789C97.729 26.8119 97.3261 28.4239 96.5304 29.8501C95.7695 31.1748 94.6491 32.2567 93.2988 32.9705C91.8306 33.7401 90.1928 34.1288 88.5354 34.101Z" fill="#7E39C4"/>
</g>
<rect x="-41.75" y="-34.75" width="1439.5" height="7415.5" stroke="#D1D5DB" stroke-width="0.5"/>
<defs>
<clipPath id="clip0_152_2247">
<rect x="-42" y="-35" width="1440" height="7416" fill="white"/>
</clipPath>
</defs>
</svg>
