<?xml version="1.0" standalone="no"?>
<!DOCTYPE svg PUBLIC "-//W3C//DTD SVG 20010904//EN"
 "http://www.w3.org/TR/2001/REC-SVG-20010904/DTD/svg10.dtd">
<svg version="1.0" xmlns="http://www.w3.org/2000/svg"
 width="500.000000pt" height="500.000000pt" viewBox="0 0 500.000000 500.000000"
 preserveAspectRatio="xMidYMid meet">
<metadata>
Created by potrace 1.14, written by Peter Selinger 2001-2017
</metadata>
<g transform="translate(0.000000,500.000000) scale(0.100000,-0.100000)"
fill="#000000" stroke="none">
<path d="M1108 3892 l-628 -627 0 -765 0 -765 627 -627 628 -628 765 0 765 0
628 628 627 627 0 765 0 765 -628 627 -627 628 -765 0 -765 0 -627 -628z
m1090 -379 l-213 -213 -645 0 -645 0 535 535 535 535 322 -322 323 -323 -212
-212z m519 -95 l213 -213 0 -705 0 -706 -207 -207 c-115 -114 -212 -210 -216
-214 -4 -4 -104 89 -222 207 l-215 215 0 705 0 705 212 212 c117 117 215 213
218 213 3 0 100 -96 217 -212z m-769 -920 l-3 -673 -670 0 -670 0 -3 673 -2
672 675 0 675 0 -2 -672z m2450 0 l-3 -673 -657 -2 c-361 -2 -664 0 -673 3
-13 5 -15 82 -15 675 l0 669 675 0 675 0 -2 -672z m-2200 -1011 l212 -212
-317 -318 c-175 -174 -320 -319 -323 -321 -3 -3 -246 235 -540 529 l-535 535
645 0 645 0 213 -213z"/>
</g>
</svg>
