<svg width="179" height="37" viewBox="0 0 179 37" fill="none" xmlns="http://www.w3.org/2000/svg">
<path d="M36.1333 11.5186C36.1279 11.4524 36.1133 11.3873 36.0899 11.3251C36.0844 11.3032 36.0764 11.282 36.0662 11.2619C36.0307 11.1859 35.9827 11.1165 35.924 11.0566L25.1004 0.225085C25.029 0.153434 24.944 0.0966532 24.8505 0.0580205C24.757 0.0193879 24.6567 -0.00033056 24.5555 4.19173e-06H11.5759C11.4865 0.000586562 11.3981 0.018002 11.3152 0.0513383L11.2442 0.0829285C11.1862 0.11045 11.1319 0.144927 11.0823 0.185597L11.0467 0.225085L0.215222 11.0566C0.154613 11.1187 0.105185 11.1909 0.0691174 11.2698L0.041476 11.3448C0.0204289 11.4048 0.00715794 11.4671 0.0019882 11.5304C0.00030068 11.5515 0.00030068 11.5726 0.0019882 11.5936V24.5654C-0.000662732 24.5877 -0.000662732 24.6102 0.0019882 24.6325C0.00972697 24.6996 0.0242809 24.7658 0.0454248 24.8299L0.0651687 24.8773C0.101451 24.9573 0.15083 25.0307 0.211273 25.0945L11.0467 35.9339C11.0618 35.9495 11.0791 35.9628 11.0981 35.9734C11.1491 36.0152 11.2047 36.051 11.2639 36.08L11.3271 36.1076C11.4107 36.138 11.4988 36.154 11.5877 36.155H24.5555C24.6564 36.1559 24.7565 36.1368 24.85 36.0988C24.9435 36.0609 25.0286 36.0048 25.1004 35.9339L35.924 25.1103C35.9808 25.0467 36.0274 24.9748 36.0622 24.8971C36.0735 24.8788 36.0815 24.8588 36.0859 24.8378L35.8727 24.7509L36.0899 24.826C36.1109 24.7661 36.1242 24.7037 36.1294 24.6404C36.1309 24.618 36.1309 24.5956 36.1294 24.5733V11.5857C36.1333 11.5636 36.1347 11.541 36.1333 11.5186ZM34.5972 12.3597V23.8111H23.1655V12.3597H34.5972ZM21.6216 11.9056V24.2455L18.0677 27.7994L14.5138 24.2455V11.9056L18.0677 8.35167L21.6216 11.9056ZM2.62793 10.8157L11.5759 1.86383L16.9699 7.26181L13.416 10.8157H2.62793ZM13.416 25.3393L16.9699 28.8932L11.5759 34.2873L2.62793 25.3393H13.416ZM12.9698 12.3597V23.8111H1.51832V12.3597H12.9698Z" fill="white"/>
<path d="M55.7824 28.3127C54.1502 28.3393 52.5435 27.9055 51.1465 27.061C49.8382 26.2252 48.7957 25.0334 48.1415 23.6255C48.102 23.5426 48.0625 23.4597 48.027 23.3728C46.8076 20.4512 46.7581 17.1727 47.8888 14.2156V14.1722C47.9677 13.9787 48.0546 13.7773 48.1415 13.6075C48.8105 12.2034 49.8668 11.0197 51.186 10.1957C52.6021 9.39092 54.2029 8.96777 55.8317 8.96777C57.4605 8.96777 59.0614 9.39092 60.4775 10.1957C61.8075 11.0056 62.8787 12.1783 63.5654 13.5759C63.6602 13.7615 63.7392 13.9471 63.8181 14.1327L63.8537 14.2156C64.0774 14.7986 64.2453 15.4015 64.3552 16.0162H60.9434C60.9434 15.9847 60.9434 15.9531 60.9158 15.9254C60.8479 15.6711 60.7662 15.4206 60.671 15.1752C60.671 15.1199 60.6236 15.0488 60.592 14.9817C60.5739 14.9078 60.5417 14.838 60.4972 14.7763C60.4526 14.6653 60.4012 14.5572 60.3432 14.4525C60.2905 14.3475 60.2312 14.2459 60.1655 14.1485C60.142 14.1072 60.1156 14.0676 60.0865 14.03C60.04 13.9487 59.9858 13.872 59.9246 13.801C59.8652 13.7119 59.7992 13.6275 59.7272 13.5483C59.6651 13.4713 59.5992 13.3975 59.5298 13.3271C59.4632 13.254 59.3905 13.1866 59.3126 13.1257C59.1793 12.9791 59.0311 12.8467 58.8703 12.7309C58.3682 12.3643 57.7932 12.1098 57.1842 11.9845L57.0618 11.9569C56.9316 11.9265 56.7998 11.9041 56.6669 11.8898C56.4213 11.8516 56.1731 11.8331 55.9245 11.8345H55.7784C55.5273 11.8337 55.2765 11.8522 55.0282 11.8898C54.8952 11.9035 54.7633 11.9259 54.6333 11.9569L54.5267 11.9806C53.9104 12.1065 53.3286 12.3637 52.8208 12.7348C52.5741 12.9166 52.3441 13.1201 52.1337 13.3429L51.9363 13.568C51.8691 13.647 51.802 13.7338 51.7388 13.8207C51.6859 13.8874 51.6371 13.9573 51.5927 14.03C51.5647 14.0675 51.5396 14.1071 51.5177 14.1485C51.4743 14.2116 51.4308 14.2906 51.3834 14.3735C51.3528 14.4192 51.3277 14.4682 51.3084 14.5197C51.2576 14.6101 51.2127 14.7037 51.1742 14.8C51.1108 14.9203 51.058 15.0458 51.0162 15.1752C50.6184 16.2724 50.4192 17.4317 50.4278 18.5987C50.4278 20.5968 50.9056 22.2316 51.8139 23.4715C52.2521 24.0605 52.8222 24.5387 53.4784 24.8678C54.1346 25.1969 54.8587 25.3679 55.5928 25.3669H56.1062C56.8408 25.3676 57.5654 25.1965 58.2222 24.8674C58.879 24.5383 59.4498 24.0603 59.8891 23.4715C60.365 22.8182 60.7146 22.0816 60.9197 21.2997C60.9197 21.2997 60.9395 21.2247 60.9434 21.2168H64.3552C64.2289 21.847 64.0411 22.4634 63.7945 23.0569C63.7629 23.1556 63.7313 23.2228 63.7036 23.2899L63.672 23.357C63.6365 23.4439 63.601 23.5268 63.5575 23.6097C62.9034 25.0165 61.8626 26.208 60.5565 27.0452C59.1583 27.8904 57.5502 28.3243 55.9166 28.2969L55.7824 28.3127Z" fill="white"/>
<path d="M94.311 28.313C92.6336 28.352 90.9761 27.9431 89.5093 27.1284C88.1492 26.3407 87.0402 25.1838 86.3108 23.7917C85.5206 22.2444 85.1259 20.5255 85.1617 18.7885C85.1168 16.9765 85.5053 15.18 86.295 13.5485C86.9944 12.1371 88.0839 10.9558 89.4343 10.1447C90.8629 9.32222 92.4892 8.90577 94.1373 8.94029C95.8175 8.89023 97.4747 9.3396 98.8995 10.2315C100.231 11.1284 101.254 12.4134 101.829 13.9118C102.489 15.6635 102.759 17.538 102.619 19.4046H88.5458L88.5695 19.6849C88.625 21.1007 89.1082 22.4665 89.9555 23.6021C90.923 24.7867 92.3248 25.4028 94.1373 25.4028C95.2256 25.4274 96.2988 25.1441 97.2331 24.5854C98.0909 24.0648 98.7773 23.3042 99.2075 22.3977H102.311C101.836 24.2502 100.716 25.8727 99.1522 26.9744C97.7014 27.8782 96.0201 28.3431 94.311 28.313ZM94.2755 11.6413C92.3761 11.6413 90.923 12.2573 89.9555 13.4656C89.2379 14.432 88.7884 15.5708 88.6524 16.7668L88.609 17.0629H99.4168L99.3812 16.7747C99.2993 15.5322 98.8817 14.3353 98.1729 13.3116C97.316 12.202 96.005 11.6413 94.2755 11.6413Z" fill="white"/>
<path d="M170.072 28.313C168.394 28.3514 166.737 27.9425 165.27 27.1284C163.91 26.3407 162.801 25.1838 162.072 23.7917C161.281 22.2444 160.887 20.5255 160.922 18.7885C160.878 16.9765 161.266 15.18 162.056 13.5485C162.756 12.138 163.846 10.957 165.195 10.1447C166.624 9.32222 168.25 8.90577 169.898 8.94029C171.578 8.89023 173.235 9.3396 174.66 10.2315C175.992 11.1284 177.015 12.4134 177.59 13.9118C178.25 15.6635 178.519 17.538 178.38 19.4046H164.307L164.33 19.6849C164.386 21.1007 164.869 22.4665 165.716 23.6021C166.684 24.7867 168.086 25.4028 169.898 25.4028C170.986 25.4274 172.06 25.1441 172.994 24.5854C173.851 24.0635 174.537 23.3033 174.968 22.3977H178.08C177.604 24.2502 176.484 25.8727 174.921 26.9744C173.468 27.8797 171.784 28.3446 170.072 28.313ZM170.036 11.6413C168.137 11.6413 166.684 12.2573 165.716 13.4656C164.999 14.432 164.549 15.5708 164.413 16.7668L164.37 17.0629H175.178L175.146 16.7747C175.061 15.5322 174.642 14.3357 173.934 13.3116C173.077 12.202 171.762 11.6413 170.036 11.6413Z" fill="white"/>
<path d="M105.375 36.1671V9.45363H108.14V11.5267L108.582 11.0568C109.269 10.3336 110.104 9.7681 111.03 9.39927C111.957 9.03044 112.952 8.8671 113.948 8.92055C115.52 8.88226 117.068 9.31996 118.387 10.1763C119.646 11.0362 120.645 12.2261 121.273 13.6156C121.975 15.1803 122.325 16.8803 122.296 18.5951C122.321 20.3086 121.974 22.0072 121.281 23.5745C120.672 24.9679 119.694 26.1691 118.454 27.0494C117.151 27.9102 115.616 28.3512 114.055 28.313C112.493 28.3651 110.956 27.9199 109.664 27.0415C109.441 26.8758 109.227 26.6978 109.024 26.5084L108.594 26.1135V36.1671H105.375ZM113.403 11.7123C112.341 11.673 111.296 11.9853 110.43 12.6008C109.622 13.231 109.02 14.0874 108.7 15.0609C108.318 16.2059 108.134 17.4078 108.155 18.6148C108.135 19.8211 108.317 21.0223 108.692 22.1687C109.012 23.1508 109.62 24.0136 110.438 24.6446C111.339 25.2787 112.425 25.5979 113.526 25.5528C114.619 25.5924 115.694 25.2597 116.574 24.609C117.397 23.956 118.018 23.0841 118.367 22.0937C118.768 20.9825 118.966 19.808 118.951 18.6266C118.966 17.453 118.768 16.2865 118.367 15.1833C118.011 14.1925 117.379 13.3239 116.547 12.6798C115.636 12.0156 114.53 11.6751 113.403 11.7123Z" fill="white"/>
<path d="M125.024 27.7875V9.45332H127.756V13.2086L128.238 12.3478C128.37 12.1101 128.517 11.8807 128.677 11.6607C129.014 11.1985 129.428 10.7978 129.901 10.4761C130.368 10.133 130.886 9.86646 131.437 9.6863C132.001 9.50057 132.586 9.38647 133.178 9.3467C133.348 9.3467 133.51 9.3467 133.676 9.3467C134.014 9.34586 134.352 9.37094 134.687 9.42173V12.5807C134.312 12.5084 133.931 12.4727 133.549 12.4741C133.328 12.4741 133.103 12.4741 132.866 12.5057C132.092 12.576 131.347 12.8335 130.694 13.256C130.098 13.6331 129.592 14.1358 129.21 14.7289C128.842 15.3161 128.575 15.9608 128.42 16.6361C128.262 17.3506 128.184 18.0803 128.187 18.8119V27.7875H125.024Z" fill="white"/>
<path d="M137.407 27.788V9.45377H140.59V27.788H137.407ZM137.407 5.84854V2.81982H140.59V5.84854H137.407Z" fill="white"/>
<path d="M151.308 28.293C149.08 28.293 147.244 27.7994 145.854 26.8202C145.142 26.2793 144.55 25.5963 144.116 24.8146C143.681 24.0329 143.414 23.1695 143.331 22.2791H146.601C146.85 23.2616 147.443 24.1228 148.271 24.7076C149.254 25.3285 150.402 25.6394 151.564 25.6C152.563 25.6535 153.554 25.391 154.396 24.8497C154.739 24.6135 155.017 24.2947 155.205 23.9228C155.392 23.5509 155.483 23.1377 155.47 22.7213C155.488 22.2501 155.349 21.7862 155.075 21.4024C154.653 20.9614 154.122 20.6411 153.535 20.4745C152.812 20.2059 151.695 19.8664 150.214 19.4715C148.905 19.1591 147.632 18.7118 146.415 18.1368C145.644 17.7927 144.979 17.247 144.492 16.5573C144.099 15.8881 143.903 15.1215 143.927 14.346C143.908 13.3337 144.209 12.3412 144.788 11.5107C145.412 10.6663 146.26 10.0138 147.236 9.62717C148.434 9.15152 149.715 8.92058 151.004 8.94798C152.287 8.92769 153.563 9.15286 154.763 9.61138C155.783 10.0011 156.689 10.639 157.401 11.4673C158.107 12.3846 158.55 13.4765 158.684 14.6263L155.525 14.65C155.359 13.7384 154.866 12.9185 154.139 12.3439C153.217 11.7214 152.128 11.3936 151.015 11.4041C149.999 11.3638 148.997 11.6473 148.153 12.2136C147.822 12.4208 147.549 12.7076 147.359 13.0478C147.168 13.388 147.067 13.7705 147.063 14.1604C147.054 14.6173 147.219 15.0606 147.525 15.4003C147.989 15.8268 148.548 16.1379 149.156 16.3085C149.918 16.577 151.051 16.9008 152.532 17.276C153.816 17.5756 155.061 18.0222 156.244 18.6067C157.018 18.975 157.675 19.5521 158.139 20.2731C158.537 20.9864 158.733 21.7944 158.708 22.6108C158.74 23.4084 158.579 24.202 158.24 24.9244C157.9 25.6468 157.392 26.2768 156.757 26.7609C155.458 27.7758 153.622 28.293 151.308 28.293Z" fill="white"/>
<path d="M74.8635 28.3131C73.4705 28.3384 72.0932 28.0167 70.8555 27.3772C69.7164 26.7718 68.7698 25.8594 68.1229 24.7434C67.4479 23.5301 67.1085 22.1589 67.1397 20.7709V9.47739H70.3263V20.6248C70.3145 21.3254 70.4489 22.0207 70.7212 22.6663C70.96 23.2225 71.314 23.7218 71.7597 24.1313C72.1857 24.5188 72.6815 24.8217 73.2208 25.0237C73.7491 25.2199 74.3078 25.3215 74.8714 25.3238C76.0245 25.3292 77.1386 24.9071 77.9988 24.1392C78.4425 23.7297 78.7939 23.2302 79.0294 22.6742C79.2986 22.0318 79.4331 21.341 79.4243 20.6445V9.4458H82.611V20.7709C82.6373 22.1513 82.2966 23.514 81.6238 24.7197C80.9804 25.8394 80.033 26.754 78.8912 27.3575C77.6497 28.008 76.2649 28.3366 74.8635 28.3131Z" fill="white"/>
</svg>
