<svg width="201" height="60" viewBox="0 0 201 60" fill="none" xmlns="http://www.w3.org/2000/svg">
<rect width="201" height="58.7513" transform="translate(0 0.62439)" fill="white"/>
<path d="M47.4253 23.4351C47.4199 23.3689 47.4053 23.3038 47.3819 23.2416C47.3764 23.2197 47.3684 23.1985 47.3582 23.1784C47.3227 23.1025 47.2747 23.033 47.216 22.9731L36.3924 12.1416C36.321 12.07 36.236 12.0132 36.1425 11.9745C36.0489 11.9359 35.9487 11.9162 35.8475 11.9165H22.8679C22.7785 11.9171 22.6901 11.9345 22.6072 11.9679L22.5362 11.9994C22.4782 12.027 22.4239 12.0614 22.3743 12.1021L22.3387 12.1416L11.5072 22.9731C11.4466 23.0352 11.3972 23.1074 11.3611 23.1863L11.3335 23.2614C11.3124 23.3213 11.2992 23.3837 11.294 23.447C11.2923 23.468 11.2923 23.4891 11.294 23.5101V36.4819C11.2913 36.5042 11.2913 36.5267 11.294 36.549C11.3017 36.6161 11.3163 36.6823 11.3374 36.7464L11.3572 36.7938C11.3934 36.8738 11.4428 36.9472 11.5033 37.011L22.3387 47.8504C22.3538 47.866 22.3711 47.8793 22.39 47.8899C22.441 47.9317 22.4967 47.9675 22.5559 47.9965L22.6191 48.0242C22.7027 48.0545 22.7908 48.0705 22.8797 48.0715H35.8475C35.9484 48.0724 36.0485 48.0533 36.142 48.0154C36.2355 47.9774 36.3206 47.9213 36.3924 47.8504L47.216 37.0268C47.2728 36.9633 47.3194 36.8913 47.3542 36.8136C47.3655 36.7953 47.3735 36.7753 47.3779 36.7543L47.1647 36.6675L47.3819 36.7425C47.4029 36.6826 47.4162 36.6202 47.4214 36.5569C47.4228 36.5346 47.4228 36.5121 47.4214 36.4898V23.5022C47.4253 23.4801 47.4267 23.4576 47.4253 23.4351ZM45.8892 24.2762V35.7277H34.4575V24.2762H45.8892ZM32.9135 23.8221V36.162L29.3596 39.7159L25.8057 36.162V23.8221L29.3596 20.2682L32.9135 23.8221ZM13.9199 22.7322L22.8679 13.7803L28.2619 19.1783L24.708 22.7322H13.9199ZM24.708 37.2558L28.2619 40.8097L22.8679 46.2038L13.9199 37.2558H24.708ZM24.2618 24.2762V35.7277H12.8103V24.2762H24.2618Z" fill="#7C47BB"/>
<path d="M67.0744 40.2294C65.4422 40.256 63.8355 39.8221 62.4385 38.9776C61.1302 38.1419 60.0877 36.95 59.4335 35.5422C59.394 35.4592 59.3545 35.3763 59.319 35.2894C58.0996 32.3679 58.0501 29.0893 59.1808 26.1322V26.0888C59.2597 25.8953 59.3466 25.6939 59.4335 25.5241C60.1025 24.12 61.1588 22.9363 62.478 22.1124C63.8941 21.3075 65.4949 20.8844 67.1237 20.8844C68.7525 20.8844 70.3534 21.3075 71.7695 22.1124C73.0995 22.9223 74.1707 24.0949 74.8574 25.4925C74.9522 25.6781 75.0312 25.8637 75.1101 26.0493L75.1457 26.1322C75.3694 26.7152 75.5373 27.3181 75.6472 27.9329H72.2354C72.2354 27.9013 72.2354 27.8697 72.2078 27.842C72.1399 27.5877 72.0582 27.3372 71.963 27.0918C71.963 27.0365 71.9156 26.9654 71.884 26.8983C71.8659 26.8244 71.8337 26.7547 71.7892 26.6929C71.7446 26.5819 71.6932 26.4738 71.6352 26.3691C71.5825 26.2641 71.5232 26.1626 71.4575 26.0651C71.434 26.0238 71.4076 25.9842 71.3785 25.9466C71.332 25.8653 71.2778 25.7886 71.2166 25.7176C71.1572 25.6286 71.0912 25.5441 71.0192 25.4649C70.9571 25.3879 70.8912 25.3141 70.8218 25.2437C70.7552 25.1706 70.6825 25.1032 70.6046 25.0424C70.4713 24.8957 70.3231 24.7633 70.1623 24.6475C69.6602 24.2809 69.0852 24.0264 68.4762 23.9012L68.3538 23.8735C68.2236 23.8431 68.0918 23.8207 67.9589 23.8064C67.7133 23.7682 67.4651 23.7497 67.2165 23.7511H67.0704C66.8193 23.7504 66.5685 23.7688 66.3202 23.8064C66.1872 23.8201 66.0553 23.8425 65.9253 23.8735L65.8187 23.8972C65.2024 24.0231 64.6206 24.2803 64.1128 24.6514C63.8661 24.8332 63.6361 25.0367 63.4257 25.2595L63.2283 25.4846C63.1611 25.5636 63.094 25.6505 63.0308 25.7373C62.9779 25.8041 62.9291 25.874 62.8847 25.9466C62.8567 25.9841 62.8316 26.0237 62.8097 26.0651C62.7663 26.1283 62.7228 26.2073 62.6754 26.2902C62.6448 26.3358 62.6197 26.3848 62.6004 26.4363C62.5496 26.5267 62.5047 26.6204 62.4661 26.7166C62.4028 26.8369 62.35 26.9624 62.3082 27.0918C61.9104 28.189 61.7112 29.3483 61.7198 30.5154C61.7198 32.5135 62.1976 34.1482 63.1059 35.3882C63.5441 35.9771 64.1141 36.4553 64.7704 36.7844C65.4266 37.1136 66.1507 37.2845 66.8848 37.2836H67.3982C68.1328 37.2842 68.8574 37.1131 69.5142 36.7841C70.171 36.455 70.7418 35.977 71.1811 35.3882C71.657 34.7348 72.0066 33.9982 72.2117 33.2163C72.2117 33.2163 72.2315 33.1413 72.2354 33.1334H75.6472C75.5209 33.7637 75.3331 34.38 75.0864 34.9735C75.0549 35.0723 75.0233 35.1394 74.9956 35.2065L74.964 35.2736C74.9285 35.3605 74.893 35.4434 74.8495 35.5264C74.1954 36.9331 73.1545 38.1247 71.8484 38.9618C70.4503 39.8071 68.8422 40.2409 67.2086 40.2136L67.0744 40.2294Z" fill="#7C47BB"/>
<path d="M105.603 40.2293C103.926 40.2683 102.268 39.8594 100.801 39.0447C99.4412 38.2571 98.3322 37.1001 97.6028 35.708C96.8126 34.1607 96.4179 32.4419 96.4537 30.7049C96.4088 28.8929 96.7973 27.0964 97.587 25.4649C98.2864 24.0534 99.3759 22.8721 100.726 22.061C102.155 21.2386 103.781 20.8221 105.429 20.8566C107.109 20.8066 108.767 21.2559 110.191 22.1479C111.523 23.0448 112.546 24.3297 113.121 25.8281C113.781 27.5798 114.051 29.4543 113.911 31.3209H99.8378L99.8615 31.6013C99.9169 33.0171 100.4 34.3828 101.248 35.5184C102.215 36.7031 103.617 37.3191 105.429 37.3191C106.518 37.3438 107.591 37.0604 108.525 36.5017C109.383 35.9811 110.069 35.2206 110.499 34.3141H113.603C113.128 36.1665 112.008 37.789 110.444 38.8907C108.993 39.7945 107.312 40.2594 105.603 40.2293ZM105.567 23.5576C103.668 23.5576 102.215 24.1736 101.248 25.3819C100.53 26.3483 100.08 27.4871 99.9444 28.6831L99.901 28.9793H110.709L110.673 28.691C110.591 27.4486 110.174 26.2517 109.465 25.2279C108.608 24.1183 107.297 23.5576 105.567 23.5576Z" fill="#7C47BB"/>
<path d="M181.364 40.2293C179.686 40.2677 178.029 39.8589 176.562 39.0447C175.202 38.2571 174.093 37.1001 173.364 35.708C172.573 34.1607 172.179 32.4419 172.214 30.7049C172.17 28.8929 172.558 27.0964 173.348 25.4649C174.048 24.0543 175.138 22.8733 176.487 22.061C177.916 21.2386 179.542 20.8221 181.19 20.8566C182.87 20.8066 184.527 21.2559 185.952 22.1479C187.284 23.0448 188.307 24.3297 188.882 25.8281C189.542 27.5798 189.811 29.4543 189.672 31.3209H175.599L175.622 31.6013C175.678 33.0171 176.161 34.3828 177.008 35.5184C177.976 36.7031 179.378 37.3191 181.19 37.3191C182.278 37.3438 183.352 37.0604 184.286 36.5017C185.143 35.9799 185.829 35.2197 186.26 34.3141H189.372C188.896 36.1665 187.776 37.789 186.213 38.8907C184.76 39.796 183.076 40.2609 181.364 40.2293ZM181.328 23.5576C179.429 23.5576 177.976 24.1736 177.008 25.3819C176.291 26.3483 175.841 27.4871 175.705 28.6831L175.662 28.9793H186.47L186.438 28.691C186.353 27.4485 185.934 26.252 185.226 25.2279C184.369 24.1183 183.054 23.5576 181.328 23.5576Z" fill="#7C47BB"/>
<path d="M116.667 48.0834V21.3699H119.432V23.443L119.874 22.9731C120.561 22.2499 121.396 21.6844 122.322 21.3156C123.249 20.9467 124.244 20.7834 125.24 20.8369C126.812 20.7986 128.36 21.2363 129.679 22.0926C130.938 22.9525 131.937 24.1424 132.565 25.532C133.267 27.0966 133.617 28.7966 133.588 30.5114C133.613 32.2249 133.266 33.9235 132.573 35.4908C131.964 36.8842 130.986 38.0855 129.746 38.9657C128.443 39.8265 126.908 40.2675 125.347 40.2293C123.785 40.2814 122.248 39.8362 120.956 38.9578C120.733 38.7921 120.519 38.6141 120.316 38.4247L119.886 38.0298V48.0834H116.667ZM124.695 23.6286C123.633 23.5893 122.588 23.9016 121.722 24.5171C120.914 25.1473 120.312 26.0037 119.992 26.9772C119.61 28.1222 119.426 29.3241 119.447 30.5311C119.427 31.7374 119.609 32.9386 119.984 34.085C120.304 35.0671 120.912 35.9299 121.73 36.5609C122.631 37.195 123.717 37.5142 124.818 37.4691C125.911 37.5087 126.986 37.176 127.866 36.5254C128.689 35.8723 129.31 35.0004 129.659 34.01C130.06 32.8988 130.258 31.7243 130.243 30.543C130.258 29.3693 130.06 28.2028 129.659 27.0996C129.303 26.1088 128.671 25.2402 127.839 24.5961C126.928 23.932 125.822 23.5914 124.695 23.6286Z" fill="#7C47BB"/>
<path d="M136.316 39.7042V21.37H139.048V25.1253L139.53 24.2645C139.662 24.0268 139.809 23.7974 139.969 23.5774C140.306 23.1152 140.72 22.7145 141.193 22.3927C141.66 22.0497 142.178 21.7831 142.729 21.603C143.293 21.4173 143.878 21.3032 144.47 21.2634C144.64 21.2634 144.802 21.2634 144.968 21.2634C145.306 21.2625 145.644 21.2876 145.979 21.3384V24.4974C145.604 24.4251 145.223 24.3894 144.841 24.3908C144.62 24.3908 144.395 24.3908 144.158 24.4224C143.384 24.4927 142.639 24.7502 141.986 25.1727C141.39 25.5498 140.884 26.0525 140.502 26.6456C140.134 27.2328 139.867 27.8775 139.712 28.5528C139.554 29.2673 139.476 29.997 139.479 30.7286V39.7042H136.316Z" fill="#7C47BB"/>
<path d="M148.699 39.7044V21.3702H151.882V39.7044H148.699ZM148.699 17.7649V14.7362H151.882V17.7649H148.699Z" fill="#7C47BB"/>
<path d="M162.6 40.2095C160.372 40.2095 158.536 39.7159 157.146 38.7366C156.434 38.1957 155.842 37.5128 155.408 36.7311C154.973 35.9494 154.706 35.0859 154.623 34.1955H157.893C158.142 35.1781 158.735 36.0393 159.563 36.624C160.546 37.2449 161.694 37.5559 162.856 37.5165C163.855 37.57 164.846 37.3075 165.688 36.7662C166.031 36.53 166.309 36.2112 166.497 35.8393C166.684 35.4673 166.775 35.0542 166.762 34.6378C166.78 34.1666 166.641 33.7026 166.367 33.3189C165.945 32.8779 165.414 32.5575 164.827 32.3909C164.104 32.1224 162.987 31.7828 161.506 31.388C160.197 31.0755 158.924 30.6283 157.707 30.0533C156.936 29.7092 156.271 29.1635 155.784 28.4738C155.391 27.8046 155.195 27.038 155.219 26.2624C155.2 25.2502 155.501 24.2577 156.08 23.4272C156.704 22.5828 157.552 21.9303 158.528 21.5436C159.726 21.068 161.007 20.8371 162.296 20.8645C163.579 20.8442 164.855 21.0693 166.055 21.5279C167.075 21.9176 167.981 22.5555 168.693 23.3838C169.399 24.3011 169.842 25.393 169.976 26.5428L166.817 26.5665C166.651 25.6548 166.158 24.835 165.431 24.2604C164.509 23.6379 163.42 23.3101 162.307 23.3206C161.291 23.2803 160.289 23.5637 159.445 24.1301C159.114 24.3372 158.841 24.6241 158.651 24.9643C158.46 25.3044 158.359 25.687 158.355 26.0768C158.346 26.5338 158.511 26.9771 158.817 27.3168C159.281 27.7433 159.84 28.0544 160.447 28.225C161.21 28.4935 162.343 28.8173 163.824 29.1924C165.108 29.4921 166.353 29.9386 167.536 30.5232C168.31 30.8914 168.967 31.4685 169.431 32.1896C169.829 32.9028 170.025 33.7109 170 34.5272C170.032 35.3248 169.871 36.1184 169.532 36.8409C169.192 37.5633 168.684 38.1933 168.049 38.6774C166.75 39.6922 164.914 40.2095 162.6 40.2095Z" fill="#7C47BB"/>
<path d="M86.1555 40.2294C84.7625 40.2546 83.3852 39.933 82.1475 39.2935C81.0084 38.6881 80.0617 37.7757 79.4149 36.6597C78.7399 35.4464 78.4005 34.0752 78.4317 32.6872V21.3937H81.6183V32.5411C81.6064 33.2417 81.7409 33.937 82.0132 34.5826C82.252 35.1388 82.6059 35.6381 83.0517 36.0476C83.4777 36.4351 83.9735 36.738 84.5128 36.94C85.0411 37.1362 85.5998 37.2378 86.1634 37.2401C87.3164 37.2455 88.4306 36.8234 89.2908 36.0555C89.7345 35.646 90.0859 35.1465 90.3214 34.5905C90.5906 33.9481 90.725 33.2573 90.7163 32.5608V21.3621H93.903V32.6872C93.9292 34.0676 93.5886 35.4303 92.9158 36.636C92.2724 37.7557 91.325 38.6703 90.1832 39.2738C88.9417 39.9243 87.5569 40.2529 86.1555 40.2294Z" fill="#7C47BB"/>
</svg>
