<svg width="123" height="125" viewBox="0 0 123 125" fill="none" xmlns="http://www.w3.org/2000/svg">
<path d="M56.8242 1.44127C56.981 4.00333 56.9462 6.58408 56.7196 9.12744C56.6848 9.44536 56.6674 9.76328 56.6151 10.0625C56.5977 10.2121 56.5803 10.3617 56.5628 10.5113C56.5454 10.7357 56.6151 10.156 56.5628 10.4926C56.5454 10.5861 56.5454 10.6983 56.528 10.7918C56.4408 11.4277 56.3364 12.0635 56.2318 12.6994C56.0053 13.971 55.7091 15.2427 55.3606 16.477C55.1864 17.0567 55.0121 17.6365 54.8205 18.2162C54.7159 18.4967 54.6287 18.7772 54.5068 19.0578C54.4894 19.1139 54.4197 19.2074 54.4197 19.2822C54.4197 19.0952 54.5242 19.0391 54.4545 19.17C54.3849 19.3196 54.3326 19.4692 54.2629 19.6188C53.8447 20.6099 53.3394 21.5637 52.7818 22.4614C52.6599 22.6671 52.5205 22.8728 52.3811 23.0785C52.3114 23.1907 52.2243 23.3029 52.1546 23.4151C52.1197 23.4525 52.0849 23.5086 52.0674 23.546C52.2417 23.2094 52.1372 23.4525 52.0849 23.5273C51.7713 23.9575 51.4228 24.3876 51.0743 24.799C50.7259 25.1917 50.3774 25.5658 49.994 25.9398C49.8198 26.1081 49.6282 26.2764 49.4365 26.4447C49.3494 26.5195 49.2623 26.5943 49.1752 26.6691C49.0358 26.7813 49.4365 26.4447 49.2274 26.6317C49.1577 26.6878 49.1054 26.7252 49.0357 26.7813C48.5827 27.1367 48.1122 27.4733 47.6244 27.7725C47.1365 28.0717 46.6313 28.2961 46.126 28.5766C46.1434 28.5579 46.4221 28.4458 46.2305 28.5206C46.1608 28.558 46.0911 28.5767 46.0214 28.6141C45.882 28.6702 45.7427 28.7263 45.5858 28.7824C45.3245 28.8759 45.0631 28.9694 44.7843 29.0442C44.2442 29.2125 43.6866 29.3247 43.1291 29.3995C42.8329 29.4369 42.4844 29.7735 42.345 30.0353C42.2056 30.3159 42.1533 30.6151 42.1882 30.933C42.2753 31.6062 42.8154 32.1486 43.4775 32.1486C44.7495 32.1299 46.0214 32.1299 47.2933 32.2234C47.5895 32.2421 47.8683 32.2795 48.1645 32.3169C48.182 32.3169 48.4956 32.373 48.2865 32.3356C48.06 32.2982 48.3736 32.3543 48.4084 32.3543C48.5653 32.373 48.7221 32.4104 48.8789 32.4478C49.5062 32.5787 50.116 32.747 50.7084 32.9527C50.813 32.9901 50.9349 33.0462 51.0395 33.0836C51.0917 33.1023 51.1614 33.1397 51.2137 33.1584C51.3182 33.1958 51.4228 33.308 51.144 33.121C51.3531 33.2706 51.6145 33.3455 51.841 33.4764C52.2766 33.7195 52.6948 33.9813 53.0781 34.2805C53.1826 34.3553 53.2871 34.4301 53.3917 34.5236C53.4265 34.561 53.4788 34.5984 53.5137 34.6171C53.6879 34.748 53.444 34.561 53.4266 34.5423C53.6008 34.7293 53.8273 34.8977 54.019 35.066C54.4023 35.44 54.7681 35.814 55.1166 36.2254C55.2734 36.4124 55.4303 36.5994 55.5697 36.7865C55.6393 36.88 55.7091 36.9735 55.7962 37.0857C55.9008 37.2353 55.6045 36.8052 55.7613 37.0296C55.8136 37.1044 55.8484 37.1605 55.9007 37.2353C56.1969 37.6654 56.4583 38.1142 56.7196 38.5631C56.981 39.0306 57.225 39.5168 57.4515 40.003C57.556 40.2462 57.6605 40.4893 57.7651 40.7324C57.7825 40.7885 57.7999 40.8446 57.8348 40.882C57.6954 40.5267 57.7825 40.7324 57.8173 40.8259C57.8696 40.9755 57.9219 41.1064 57.9742 41.256C58.3749 42.3781 58.6711 43.5189 58.8976 44.6783C58.9673 45.015 59.0196 45.3329 59.0719 45.6695C59.0893 45.8004 59.1067 45.95 59.1415 46.0809C59.159 46.1931 59.1764 46.2867 59.1764 46.3989C59.1764 46.3428 59.159 46.2866 59.159 46.2305C59.159 46.3053 59.1764 46.3614 59.1764 46.4363C59.2461 47.1095 59.3158 47.764 59.3507 48.4373C59.5423 51.523 59.3681 54.6274 59.1764 57.6944C59.1416 58.3863 59.6991 58.9847 60.309 59.0782C60.9536 59.1717 61.546 58.7416 61.7377 58.0684C63.1142 53.3744 63.2884 48.4186 64.3164 43.6498C64.543 42.5838 64.8043 41.5178 65.1528 40.4706C65.2225 40.2462 65.3096 40.0218 65.3793 39.816C65.4142 39.7038 65.4838 39.5916 65.5187 39.4607C65.5187 39.4794 65.3967 39.7786 65.4838 39.5729C65.5012 39.5168 65.5361 39.442 65.5536 39.3859C65.7452 38.9371 65.9369 38.507 66.1459 38.0768C66.5641 37.2166 67.052 36.3937 67.5921 35.627C67.6269 35.5896 67.6618 35.5335 67.6792 35.4961C67.505 35.7766 67.5573 35.6644 67.6095 35.5896C67.6792 35.4961 67.749 35.4026 67.8187 35.3091C67.958 35.1221 68.1148 34.935 68.2716 34.748C68.5678 34.3927 68.8815 34.0561 69.1951 33.7569C69.3868 33.5699 69.561 33.4016 69.7701 33.2332C69.8049 33.1958 69.8398 33.1771 69.8921 33.1397C69.5784 33.4016 69.8049 33.2145 69.8572 33.1584C69.9617 33.0836 70.0489 33.0088 70.1534 32.934C70.5368 32.6535 70.9375 32.3917 71.3557 32.1673C71.4602 32.1112 71.5821 32.0551 71.6867 31.999C71.739 31.9803 71.7739 31.9616 71.8261 31.9429C72.0701 31.8306 71.5647 32.0551 71.7913 31.9616C72.0178 31.868 72.2443 31.7746 72.4882 31.6998C72.7321 31.6249 72.9587 31.5501 73.2026 31.494C73.3071 31.4753 73.4291 31.4379 73.5336 31.4192C73.6382 31.4005 74.126 31.3257 73.673 31.3818C74.0215 31.3257 74.3526 31.2696 74.5965 30.9704C74.7882 30.746 74.9101 30.4842 74.9624 30.1662C75.0495 29.5304 74.6661 28.7637 74.0215 28.6328C73.5162 28.5206 73.0109 28.3896 72.5056 28.2213C72.2791 28.1465 72.07 28.053 71.8435 27.9782C71.7215 27.9221 71.5996 27.866 71.4777 27.8286C71.8784 27.9969 71.4253 27.7912 71.3208 27.7538C70.3973 27.2863 69.5088 26.7252 68.6898 26.0707C68.655 26.0333 68.6027 25.9959 68.5678 25.9772C68.3936 25.8276 68.6375 26.0333 68.655 26.052C68.5678 25.9585 68.4459 25.8837 68.3414 25.7902C68.1323 25.6032 67.9406 25.4349 67.7489 25.2479C67.3656 24.8738 66.9823 24.4811 66.6338 24.051C66.2853 23.6395 65.9543 23.2281 65.6232 22.798C65.5884 22.7419 65.5535 22.6858 65.5012 22.6297C65.5187 22.6484 65.6929 22.8915 65.5536 22.7045C65.4664 22.5923 65.3967 22.4801 65.3096 22.3679C65.1527 22.1435 64.996 21.9003 64.8566 21.6759C64.2816 20.7596 63.7763 19.7871 63.3233 18.796C63.2187 18.5528 63.1142 18.3284 63.0097 18.0853C62.9748 18.0292 62.9574 17.9544 62.94 17.8983C62.8529 17.6926 62.9748 17.9731 62.9748 17.9918C62.9225 17.8235 62.8528 17.6739 62.8005 17.5243C62.6089 17.0193 62.4346 16.4957 62.2604 15.9721C61.5286 13.6718 60.9885 11.2968 60.5529 8.90304C60.309 7.57525 60.0825 6.22877 59.8908 4.88229C59.8037 4.24645 59.7166 3.62931 59.6295 2.99347C59.5946 2.67555 59.5423 2.37634 59.5075 2.05842C59.49 1.94621 59.4203 1.42257 59.49 1.8901C59.4726 1.72179 59.4552 1.57219 59.4378 1.40388C59.3855 1.01115 59.3158 0.693223 59.0544 0.412706C58.8279 0.169591 58.462 -0.0174116 58.131 0.00128955C57.7999 0.0199907 57.434 0.132189 57.2075 0.412706C56.981 0.711924 56.7719 1.08595 56.8242 1.44127C57.434 6.35967 58.131 11.3342 59.5423 16.0656C60.9014 20.5725 63.1142 24.8738 66.5815 27.8847C68.5504 29.5865 70.8155 30.8956 73.3072 31.4005C73.4291 30.4842 73.5337 29.5678 73.6556 28.6515C72.5754 28.8011 71.5822 29.1003 70.5716 29.5678C69.683 29.9792 68.864 30.5403 68.0974 31.1948C66.5989 32.4478 65.3619 34.0748 64.3861 35.814C63.3581 37.628 62.6089 39.629 62.1036 41.6862C61.4938 44.1173 61.1453 46.6233 60.7968 49.1105C60.4135 51.9157 60.0127 54.7209 59.2112 57.4325C60.065 57.5634 60.9188 57.6757 61.7726 57.8066C62.1036 52.271 62.3998 46.4737 60.6574 41.1438C59.2113 36.693 56.3711 32.5226 52.2417 30.6525C49.4713 29.3995 46.4396 29.3621 43.4775 29.3995C43.5995 30.3159 43.704 31.2322 43.826 32.1486C48.2168 31.494 51.9629 28.4457 54.5242 24.7055C57.3643 20.5539 58.6014 15.3362 59.1939 10.2869C59.5423 7.35085 59.612 4.39605 59.4203 1.45997C59.3681 0.730621 58.8453 0.019977 58.1135 0.0573793C57.4514 0.0760805 56.7719 0.655821 56.8242 1.44127Z" fill="#F7795B"/>
<path d="M8.43804 39.4609C8.73424 40.8635 8.9956 42.2848 9.22211 43.7061C9.34408 44.398 9.44867 45.09 9.53579 45.7819C9.58806 46.1372 9.6403 46.4738 9.67515 46.8292C9.69257 46.9788 9.70996 47.1471 9.72739 47.2967C9.76223 47.5585 9.72739 47.3154 9.72739 47.278C9.74481 47.3902 9.76227 47.5024 9.76227 47.6333C10.1107 50.4572 10.3198 53.2811 10.4243 56.1236C10.4766 57.3392 10.4767 58.5361 10.407 59.7517C10.3896 60.0322 10.3721 60.3127 10.3372 60.5932C10.3198 60.7428 10.3024 60.8924 10.285 61.042C10.2676 61.1916 10.3198 61.3039 10.285 61.0046C10.3024 61.0982 10.2501 61.2104 10.2501 61.3039C10.163 61.8836 10.0584 62.4446 9.90162 63.0057C9.83193 63.2862 9.74483 63.548 9.65771 63.8285C9.62286 63.9407 9.55322 64.0716 9.53579 64.1838C9.60549 63.9033 9.60544 64.0342 9.57059 64.109C9.53574 64.2025 9.50088 64.2773 9.46603 64.3709C9.22209 64.9132 8.94333 65.4181 8.61228 65.9043C8.52516 66.0165 8.45548 66.1475 8.36836 66.2597C8.38579 66.2223 8.54263 66.0166 8.40324 66.2036C8.36839 66.2597 8.33351 66.3158 8.28124 66.3532C8.107 66.5963 7.91531 66.8394 7.72365 67.0825C7.35775 67.5313 6.95705 67.9802 6.5563 68.4103C6.12071 68.8778 5.66763 69.3079 5.19719 69.7381C4.95326 69.9625 4.70936 70.1869 4.448 70.3926C4.39573 70.4487 4.32603 70.5048 4.27376 70.5422C4.23891 70.5609 4.02983 70.748 4.18664 70.617C4.36088 70.4861 4.11695 70.6732 4.09952 70.6919C4.02983 70.748 3.94274 70.8041 3.87305 70.8789C2.82762 71.7017 1.74734 72.4684 0.649642 73.1978C0.179199 73.5157 -0.134498 74.1889 0.0571637 74.7874C0.231402 75.3484 0.736727 75.8534 1.31171 75.816C2.40941 75.7411 3.50711 75.6851 4.62224 75.7412C5.35404 75.7786 6.08584 75.8534 6.80022 75.9469C7.20096 75.9843 7.58426 76.0217 7.985 76.0591C8.10697 76.0591 8.22895 76.0778 8.35092 76.0965C8.38577 76.0965 8.40319 76.0965 8.43804 76.1152C8.57743 76.1339 8.54257 76.1339 8.33348 76.0965C8.36833 76.1152 8.45551 76.1152 8.49036 76.1152C8.76914 76.1713 9.04789 76.2274 9.32667 76.3209C9.5706 76.3957 9.81456 76.4892 10.0411 76.5827C10.1108 76.6014 10.163 76.6388 10.2327 76.6575C10.407 76.7323 9.91906 76.5079 10.1804 76.6388C10.3198 76.7136 10.4418 76.7697 10.5812 76.8445C11.0691 77.1063 11.5221 77.4056 11.9577 77.7422C12.01 77.7796 12.0622 77.8357 12.1145 77.8731C12.3061 78.0227 12.0622 77.8357 12.0448 77.817C12.0971 77.9105 12.2887 78.0227 12.3584 78.0975C12.5849 78.3032 12.794 78.5089 13.0031 78.7146C13.4039 79.1261 13.8046 79.5749 14.1531 80.0237C14.3273 80.2481 14.5016 80.4726 14.6584 80.697C14.85 80.9588 14.4841 80.4352 14.6584 80.697C14.6932 80.7531 14.7281 80.7905 14.7629 80.8466C14.8675 80.9962 14.972 81.1458 15.0591 81.2954C15.3901 81.8003 15.7038 82.3053 16 82.8289C16.6446 83.9697 17.2371 85.1665 17.7772 86.3634C18.0734 87.018 18.3696 87.6912 18.6484 88.3457C18.7181 88.4953 18.7704 88.645 18.8401 88.7946C18.8749 88.8694 18.9098 88.9629 18.9447 89.0377C19.0318 89.2808 18.9446 89.0564 18.9272 89.0003C19.084 89.3743 19.206 89.7483 19.3454 90.1223C20.4779 93.1893 21.3491 96.3498 21.9589 99.5851C22.0809 100.277 22.7953 100.67 23.3877 100.595C24.0847 100.501 24.4506 99.9218 24.5203 99.2111C25.1301 93.5821 23.8059 87.9904 24.1195 82.3427C24.1369 81.8938 24.1892 81.445 24.224 81.0149C24.2415 80.9027 24.2589 80.7905 24.2589 80.6783C24.2763 80.4912 24.2066 81.071 24.2415 80.7905C24.2415 80.7344 24.2589 80.697 24.2589 80.6409C24.2938 80.3977 24.3285 80.1546 24.3634 79.9115C24.5202 78.9578 24.7293 78.004 24.9732 77.0876C25.1126 76.6014 25.252 76.1152 25.4088 75.6289C25.4785 75.4045 25.5483 75.1988 25.6354 74.9931C25.6702 74.8809 25.7225 74.7687 25.7573 74.6565C25.8444 74.4508 25.7225 74.75 25.7051 74.7687C25.7399 74.6939 25.7573 74.6191 25.7922 74.5443C26.1581 73.6653 26.5762 72.8051 27.0815 72.0009C27.2035 71.7952 27.3429 71.5895 27.4823 71.3838C27.4998 71.3464 27.6565 71.1407 27.4997 71.3464C27.3603 71.5521 27.5172 71.3277 27.552 71.2903C27.6217 71.1968 27.6914 71.1033 27.7785 71.0098C28.0747 70.6357 28.4058 70.2804 28.7542 69.9625C28.8414 69.869 28.9459 69.7942 29.033 69.7194C29.155 69.6072 28.7891 69.9064 28.9285 69.8129C28.9807 69.7755 29.033 69.7381 29.0853 69.682C29.2769 69.5511 29.4512 69.4202 29.6603 69.2893C29.852 69.1771 30.0436 69.0648 30.2353 68.9713C30.2701 68.9526 30.4792 68.8591 30.2527 68.9526C30.0436 69.0461 30.2179 68.9713 30.2701 68.9526C30.3921 68.8965 30.514 68.8591 30.636 68.8217C31.1587 68.6347 31.6291 68.0924 31.5943 67.4752C31.5594 66.8394 31.211 66.3345 30.636 66.1288C28.4057 65.3246 26.071 64.988 23.8233 64.2212C23.562 64.1277 23.3006 64.0342 23.0393 63.922C22.987 63.9033 22.9346 63.8846 22.8824 63.8659C22.8475 63.8472 22.621 63.7163 22.8127 63.8285C23.0044 63.9407 22.7779 63.8098 22.743 63.7911C22.6733 63.7537 22.5862 63.7163 22.5165 63.6789C22.0112 63.4358 21.5408 63.1366 21.0878 62.7999C21.0181 62.7438 20.9483 62.6878 20.8786 62.6504C20.7218 62.5381 20.9135 62.7064 20.9484 62.7064C20.8961 62.7251 20.6695 62.4633 20.6173 62.4072C20.3908 62.1828 20.1643 61.9584 19.9552 61.7153C19.781 61.5096 19.6067 61.2852 19.4325 61.0608C19.3454 60.9485 19.2582 60.8363 19.1711 60.7241C19.3976 61.0046 19.2583 60.8363 19.206 60.7615C19.1537 60.6867 19.1015 60.5932 19.0318 60.5184C18.4045 59.6021 17.8818 58.6296 17.4113 57.6197C17.2893 57.3579 17.1848 57.1148 17.0803 56.853C17.028 56.7408 16.9758 56.6286 16.9409 56.4977C16.9061 56.4416 16.8886 56.3668 16.8538 56.3107C16.7493 56.0488 16.9583 56.5725 16.8538 56.3294C16.6447 55.787 16.453 55.226 16.2613 54.6836C15.4772 52.3647 14.8674 49.971 14.1879 47.6146C13.247 44.4354 12.1493 41.3123 10.7206 38.3575C10.4069 37.703 9.50094 37.4599 8.92596 37.8526C8.2987 38.2827 8.12443 39.0682 8.45548 39.7788C8.80396 40.4895 9.13504 41.2188 9.44867 41.9482C9.58806 42.2848 9.74486 42.6214 9.86683 42.958C9.8494 42.9206 9.76227 42.6775 9.84939 42.9206C9.88423 42.9954 9.9191 43.0889 9.95395 43.1637C10.0236 43.3507 10.0933 43.5378 10.163 43.7061C10.6508 45.0152 11.0865 46.3429 11.4872 47.6894C12.219 50.1019 12.8463 52.5517 13.6129 54.9455C14.3447 57.227 15.2334 59.4898 16.5053 61.4909C17.1848 62.5568 17.9514 63.6415 18.8923 64.4644C19.9029 65.3807 21.0181 66.0352 22.2552 66.5402C24.7294 67.5687 27.4126 67.868 29.9217 68.7656C29.9217 67.868 29.9217 66.9703 29.9217 66.054C26.1233 67.363 23.9453 71.4212 22.743 75.2362C22.1158 77.1998 21.7325 79.257 21.5408 81.3141C21.2969 83.9697 21.4711 86.6626 21.6801 89.3182C21.9241 92.5909 22.2203 95.8636 21.8718 99.1363C22.7256 99.0054 23.5794 98.8932 24.4332 98.7623C23.8756 95.8262 23.0915 92.9275 22.1157 90.1223C21.1226 87.2985 19.9552 84.512 18.5439 81.8938C17.3416 79.6871 15.8955 77.5365 14.0485 75.9095C13.038 75.0305 11.9925 74.3199 10.7728 73.8149C9.69254 73.3474 8.56002 73.2165 7.41005 73.1043C6.57371 73.0295 5.75482 72.9173 4.91848 72.8612C3.68139 72.7864 2.46169 72.8425 1.22459 72.9173C1.4511 73.7962 1.66016 74.6565 1.88667 75.5354C3.94268 74.1702 5.94643 72.6742 7.74109 70.8976C9.51832 69.121 11.1736 67.0825 12.0622 64.6327C12.916 62.2763 13.0554 59.6395 13.0031 57.1148C12.9508 54.2535 12.7417 51.3922 12.4281 48.5684C12.0622 45.2396 11.5395 41.9108 10.8599 38.6381C10.7031 37.9274 9.90167 37.4412 9.25699 37.6656C8.64716 37.9835 8.2638 38.6942 8.43804 39.4609Z" fill="#F7795B"/>
<path d="M76.9835 77.1248C77.2275 78.1534 77.4192 79.182 77.5586 80.2479C77.5412 80.117 77.5237 80.0048 77.5063 79.8739C77.7676 81.9497 77.8025 84.0817 77.5411 86.1575C77.5586 86.0266 77.576 85.9144 77.5934 85.7835C77.3843 87.4666 76.9835 89.1123 76.3737 90.6645C76.426 90.5523 76.4609 90.4401 76.5132 90.3279C76.217 91.0759 75.8859 91.8052 75.4852 92.4972C75.2935 92.8525 75.067 93.2078 74.8405 93.5444C74.7359 93.6941 74.6314 93.8437 74.5269 93.9933C74.8056 93.6006 74.5791 93.9185 74.5094 94.012C74.4397 94.1055 74.37 94.199 74.3003 94.2738C73.8124 94.9096 73.2549 95.4894 72.6799 96.0317C72.5405 96.1626 72.3837 96.2935 72.2443 96.4244C72.1572 96.4992 71.861 96.7423 72.2269 96.4431C72.1398 96.4992 72.0701 96.574 71.983 96.6488C71.6519 96.9106 71.3034 97.1538 70.955 97.3969C70.2929 97.827 69.6307 98.201 68.9164 98.5189C69.0209 98.4628 69.1254 98.4255 69.2299 98.3694C68.7247 98.5938 68.2194 98.8182 67.7141 99.0613C67.3656 99.2296 67.0346 99.3792 66.7733 99.6597C66.1808 100.258 66.2853 101.287 66.8952 101.792C67.2088 102.053 67.627 102.128 67.9929 102.24C68.6202 102.446 69.2474 102.689 69.8572 102.97C69.7527 102.914 69.6482 102.876 69.5436 102.82C71.1989 103.587 72.8019 104.541 74.2306 105.7C74.2655 105.738 74.3003 105.756 74.3352 105.794C74.039 105.551 74.1609 105.663 74.2306 105.7C74.3177 105.775 74.3874 105.831 74.4745 105.906C74.6313 106.037 74.7882 106.186 74.9276 106.317C75.1889 106.579 75.4503 106.841 75.6942 107.14C75.8162 107.271 75.9207 107.421 76.0427 107.57C76.095 107.645 76.1472 107.72 76.1995 107.795C76.2517 107.87 76.3389 108 76.095 107.664C76.1298 107.72 76.1646 107.757 76.1995 107.813C76.4086 108.113 76.6177 108.431 76.792 108.767C77.245 109.534 77.6108 110.357 77.9593 111.198C77.907 111.086 77.8722 110.974 77.8199 110.862C79.0745 114.078 79.6494 117.538 80.207 120.96C80.3463 121.877 80.5032 122.793 80.66 123.709C80.7123 124.027 81.0085 124.401 81.2524 124.551C81.5137 124.701 81.7926 124.757 82.0888 124.719C82.7335 124.626 83.2039 124.046 83.2213 123.335C83.2736 121.783 83.3259 120.231 83.3781 118.66C83.4304 117.164 83.4304 115.649 83.622 114.153C83.6046 114.284 83.5872 114.396 83.5698 114.527C83.744 113.237 84.0054 111.946 84.319 110.693C84.4758 110.076 84.65 109.459 84.8243 108.842C84.9811 108.337 85.1205 107.813 85.3122 107.308C85.2599 107.421 85.225 107.533 85.1727 107.645C85.4167 107.047 85.7304 106.486 86.0963 105.962C86.1485 105.887 86.2008 105.812 86.2531 105.719C86.375 105.551 86.0265 106.018 86.2182 105.756C86.3401 105.588 86.4621 105.438 86.5841 105.27C86.8106 104.971 87.0546 104.69 87.2985 104.41C87.8212 103.83 88.3788 103.269 88.9537 102.727C89.0931 102.596 89.2325 102.484 89.3719 102.353C89.4416 102.297 89.5113 102.24 89.581 102.166C89.6159 102.128 89.6507 102.091 89.7029 102.072C89.6507 102.11 89.4416 102.297 89.5985 102.147C89.8772 101.923 90.1734 101.698 90.4522 101.474C91.0272 101.062 91.6196 100.67 92.2643 100.389C92.1597 100.445 92.0552 100.483 91.9507 100.539C92.003 100.52 92.0552 100.501 92.1075 100.464C92.4211 100.333 92.7173 100.146 92.8915 99.828C93.0309 99.5475 93.0832 99.2483 93.0483 98.9304C92.9612 98.2384 92.4211 97.7148 91.759 97.7148C91.4628 97.7148 91.1666 97.6961 90.8878 97.6587C91.0098 97.6774 91.1143 97.6961 91.2363 97.7148C90.6613 97.6213 90.0863 97.453 89.5461 97.2099C89.6507 97.266 89.7553 97.3034 89.8598 97.3595C89.5288 97.2099 89.2151 97.0416 88.9189 96.8358C88.7621 96.7423 88.6227 96.6301 88.4659 96.5366C88.3962 96.4805 88.309 96.4244 88.2394 96.3683C88.2045 96.3496 88.1696 96.3122 88.1348 96.2935C88.1174 96.2748 88.1 96.2561 88.0826 96.2561C87.9606 96.1439 88.2568 96.4057 88.2394 96.387C87.6469 95.8634 87.0894 95.3023 86.5667 94.6852C86.4447 94.5169 86.3053 94.3673 86.1834 94.199C86.1311 94.1242 86.0614 94.0307 86.0091 93.9559C85.8697 93.7688 86.1485 94.1429 86.0963 94.0681C86.0614 94.012 86.0265 93.9746 85.9917 93.9185C85.7303 93.5631 85.5038 93.1891 85.2599 92.8151C84.772 92.0296 84.3365 91.2068 83.9357 90.3652C83.4653 89.3928 83.0297 88.3829 82.6289 87.3731C82.6812 87.4853 82.716 87.5975 82.7683 87.7097C81.6009 84.7362 80.6948 81.6318 79.9456 78.49C79.7714 77.7607 79.6146 77.05 79.4578 76.3207C79.301 75.61 78.4994 75.1238 77.8547 75.3482C77.1926 75.6474 76.8093 76.3581 76.9835 77.1248C77.3494 78.8266 77.7502 80.5284 78.2207 82.2115C78.7608 84.1752 79.3881 86.1388 80.1025 88.0463C80.8691 90.0473 81.7229 92.0296 82.8032 93.8624C83.7615 95.5081 84.9114 97.1164 86.3227 98.3319C87.0023 98.9117 87.7167 99.454 88.5182 99.828C89.4068 100.239 90.278 100.501 91.2537 100.595C91.4454 100.613 91.637 100.613 91.8112 100.613C91.6893 99.6971 91.5847 98.7808 91.4628 97.8644C90.034 98.4628 88.7969 99.3979 87.6121 100.426C86.4273 101.455 85.3122 102.615 84.3713 103.905C83.9009 104.541 83.4652 105.177 83.1168 105.906C82.716 106.766 82.4547 107.701 82.1933 108.618C81.5661 110.843 81.0607 113.106 80.9039 115.425C80.8168 116.734 80.7994 118.062 80.7646 119.371C80.7297 120.717 80.6774 122.045 80.6426 123.391C81.4963 123.261 82.3501 123.148 83.2039 123.017C82.5766 119.296 82.1062 115.518 80.991 111.928C80.416 110.114 79.7017 108.3 78.6563 106.729C78.1335 105.925 77.5412 105.177 76.8791 104.503C76.1124 103.755 75.2586 103.082 74.3874 102.484C73.4291 101.81 72.4186 101.212 71.3731 100.707C70.7807 100.408 70.1709 100.146 69.5436 99.9028C69.0383 99.7158 68.533 99.5662 68.0277 99.3979C68.1323 99.454 68.2369 99.4914 68.3414 99.5475C68.4982 99.7158 68.6375 99.8654 68.7944 100.034C68.8466 100.146 68.8815 100.258 68.9338 100.37C68.9512 100.501 68.9686 100.613 68.986 100.744C68.9686 100.875 68.9512 100.988 68.9338 101.118C68.8815 101.231 68.8466 101.343 68.7944 101.455C68.6898 101.623 68.5505 101.829 68.3936 101.904C68.4285 101.885 68.4459 101.866 68.4808 101.848C68.5679 101.792 68.655 101.754 68.7421 101.698C68.986 101.567 69.2474 101.455 69.5087 101.343C69.4042 101.399 69.2997 101.436 69.1952 101.492C69.9095 101.175 70.6413 100.857 71.3382 100.464C72.1397 100.015 72.889 99.4914 73.6033 98.9117C75.1192 97.6587 76.426 96.1813 77.454 94.4608C79.4403 91.1881 80.3115 87.2235 80.329 83.3523C80.329 81.0334 80.0327 78.6957 79.51 76.4516C79.3358 75.7409 78.5692 75.236 77.9071 75.4791C77.2101 75.6474 76.7919 76.3581 76.9835 77.1248Z" fill="#F7795B"/>
<path d="M94.6341 27.5108C94.7735 28.2027 94.8955 28.8947 95 29.5866C95.0523 29.9232 95.1046 30.2786 95.1568 30.6339C95.1743 30.7461 95.2613 31.2697 95.1916 30.8583C95.2265 31.064 95.244 31.2697 95.2614 31.4567C95.4182 32.878 95.5402 34.318 95.6099 35.758C95.7493 38.6567 95.7318 41.5741 95.5401 44.454C95.4878 45.1647 95.4356 45.8753 95.3833 46.6047C95.3485 46.9226 95.331 47.2592 95.2962 47.5771C95.2788 47.7267 95.2614 47.8763 95.244 48.0446C95.244 48.1195 95.2265 48.1943 95.2265 48.2504C95.2091 48.3626 95.2265 48.3065 95.244 48.0821C95.244 48.1382 95.2265 48.1943 95.2265 48.2504C95.0697 49.4473 94.8258 50.6254 94.5296 51.7849C94.3727 52.3646 94.1985 52.9444 94.0068 53.5054C93.9023 53.7859 93.8151 54.0664 93.7106 54.347C93.6932 54.4218 93.6583 54.4779 93.6409 54.5527C93.7455 54.1973 93.6932 54.403 93.6584 54.4965C93.5887 54.6462 93.5364 54.8145 93.4667 54.9641C92.9962 56.0674 92.4561 57.1147 91.8114 58.1246C91.6372 58.4051 91.4456 58.6856 91.2539 58.9474C91.2016 59.0222 91.0971 59.1157 91.3062 58.8726C91.2539 58.9474 91.1842 59.0222 91.1319 59.097C91.0274 59.228 90.9402 59.3589 90.8357 59.4898C90.4349 59.9947 90.0168 60.4622 89.5638 60.9297C89.3373 61.1542 89.1107 61.3786 88.8668 61.603C88.7448 61.7152 88.6054 61.8087 88.5009 61.9209C88.7274 61.6778 88.6403 61.8087 88.5532 61.8835C88.4835 61.9396 88.4138 61.9957 88.3267 62.0518C87.8214 62.4445 87.2813 62.8186 86.7237 63.1365C86.2359 63.417 85.957 64.1464 86.1312 64.7261C86.2009 64.9505 86.3055 65.1749 86.4624 65.3432C86.654 65.5676 87.0896 65.7921 87.3858 65.7547C88.5532 65.605 89.7206 65.5302 90.888 65.5676C91.463 65.5863 92.0205 65.6237 92.5955 65.6798C92.7349 65.6986 92.8917 65.7173 93.0311 65.736C93.1356 65.7547 93.6583 65.8295 93.2053 65.7547C93.5015 65.8108 93.7978 65.8481 94.094 65.9043C95.2265 66.11 96.359 66.4092 97.4567 66.7832C98.0143 66.9702 98.5719 67.1759 99.112 67.4191C99.234 67.4752 99.3385 67.5126 99.4605 67.5687C99.5302 67.6061 99.5999 67.6248 99.6696 67.6622C99.3037 67.5126 99.5476 67.6061 99.6347 67.6435C99.9135 67.7744 100.175 67.9053 100.454 68.0362C101.517 68.5785 102.545 69.177 103.52 69.8502C104.008 70.1868 104.479 70.5235 104.932 70.8975C105.054 70.991 105.175 71.0845 105.297 71.178C105.35 71.2341 105.419 71.2715 105.472 71.3276C105.193 71.1032 105.315 71.1967 105.385 71.2528C105.646 71.4772 105.89 71.6829 106.134 71.9073C107.005 72.6928 107.841 73.553 108.608 74.4507C109.009 74.9182 109.392 75.4044 109.775 75.9094C109.845 76.0216 109.932 76.1151 110.002 76.2273C109.723 75.872 110.054 76.3021 110.106 76.3956C110.281 76.6574 110.455 76.9192 110.629 77.1811C111.361 78.3218 112.023 79.5187 112.581 80.753C112.72 81.0709 112.859 81.3888 112.981 81.688C113.086 81.9498 112.859 81.3701 112.964 81.6506C112.999 81.7441 113.034 81.8563 113.068 81.9499C113.121 82.0995 113.173 82.2491 113.225 82.3987C113.469 83.0719 113.678 83.7639 113.853 84.4558C114.044 85.1665 114.793 85.6714 115.456 85.4283C115.769 85.3161 116.083 85.1103 116.24 84.7924C116.414 84.4371 116.431 84.1005 116.379 83.7078C116.379 83.6891 116.327 83.3337 116.362 83.5581C116.396 83.7826 116.344 83.4459 116.344 83.4272C116.327 83.2963 116.309 83.1654 116.292 83.0345C116.257 82.7353 116.222 82.4361 116.205 82.1369C116.17 81.6693 116.135 81.2018 116.118 80.7343C116.1 80.0049 116.118 79.2569 116.1 78.5275C116.1 77.6112 116.048 76.7135 115.961 75.7972C115.891 75.1052 115.804 74.4133 115.717 73.7213C115.665 73.3099 115.612 72.8985 115.56 72.4684C115.543 72.3936 115.543 72.3188 115.525 72.2439C115.473 71.8886 115.56 72.4684 115.525 72.2439C115.508 72.0382 115.473 71.8512 115.456 71.6455C115.299 70.3177 115.159 68.9713 115.125 67.6248C115.107 66.9328 115.107 66.2596 115.159 65.5676C115.177 65.2497 115.194 64.9131 115.246 64.5952C115.177 64.9879 115.281 64.4082 115.281 64.3334C115.316 64.1464 115.334 63.978 115.368 63.791C115.473 63.2113 115.63 62.6503 115.804 62.1079C115.874 61.8648 115.961 61.6217 116.048 61.3786C116.083 61.2664 116.118 61.1542 116.17 61.0607C116.187 60.9859 116.222 60.9297 116.24 60.8549C116.362 60.5557 116.187 61.0046 116.24 60.8737C116.658 59.8825 117.128 58.9287 117.686 58.0311C117.843 57.788 118.069 57.5261 118.209 57.2643C118.191 57.283 118.017 57.5261 118.156 57.3391C118.209 57.2643 118.261 57.2082 118.313 57.1334C118.4 57.0212 118.487 56.909 118.574 56.7968C118.94 56.348 119.324 55.9178 119.742 55.5064C119.951 55.3007 120.177 55.095 120.404 54.8893C120.578 54.7397 120.352 54.9454 120.334 54.9454C120.404 54.908 120.456 54.8332 120.526 54.7958C120.648 54.7023 120.77 54.6088 120.874 54.5153C121.345 54.1599 121.833 53.8607 122.355 53.5802C122.843 53.3184 123.122 52.5516 122.948 51.9906C122.756 51.3735 122.286 50.9994 121.693 50.962C121.083 50.9246 120.474 50.8685 119.864 50.7937C119.724 50.775 119.585 50.7563 119.446 50.7376C119.376 50.7376 119.306 50.7002 119.237 50.7002C119.585 50.6815 119.358 50.7189 119.254 50.7002C118.94 50.6441 118.627 50.6067 118.331 50.5506C117.146 50.3262 115.978 50.0457 114.846 49.6904C114.271 49.5033 113.713 49.3163 113.156 49.0919C112.894 48.9797 112.633 48.8862 112.354 48.774C112.319 48.7553 111.953 48.6057 111.953 48.6057C112.006 48.6244 112.058 48.6618 112.11 48.6805C112.058 48.6618 112.006 48.6244 111.953 48.6057C111.884 48.5683 111.797 48.5309 111.727 48.4935C110.629 47.9698 109.584 47.3714 108.573 46.6795C108.068 46.3242 107.563 45.9688 107.092 45.5761C107.04 45.5387 107.005 45.5013 106.953 45.4639C107.249 45.6883 107.005 45.52 106.953 45.4639C106.848 45.3704 106.726 45.2769 106.622 45.1834C106.378 44.9777 106.151 44.7533 105.925 44.5288C105.489 44.0987 105.054 43.6499 104.653 43.1823C104.235 42.6961 103.869 42.1725 103.468 41.6863C103.712 41.9855 103.416 41.6115 103.363 41.518C103.276 41.3871 103.189 41.2748 103.102 41.1439C102.91 40.8634 102.736 40.5829 102.562 40.3024C102.213 39.7414 101.9 39.1616 101.586 38.5819C100.976 37.4224 100.436 36.2255 99.9309 34.9913C99.9135 34.9351 99.8787 34.879 99.8613 34.8229C99.8438 34.7668 99.809 34.7107 99.7916 34.6546C99.8613 34.8416 99.8787 34.8603 99.8264 34.7294C99.7567 34.5611 99.687 34.3741 99.6173 34.2058C99.4954 33.8692 99.3734 33.5326 99.2514 33.1959C99.0075 32.504 98.7635 31.7933 98.537 31.1014C98.0666 29.6614 97.631 28.2214 97.1954 26.7814C96.9863 26.0895 96.272 25.5659 95.5924 25.809C94.8955 26.0147 94.4076 26.7627 94.6341 27.5108C96.2023 32.7658 97.8401 38.1891 100.889 42.6961C102.44 44.9964 104.304 46.9787 106.5 48.6057C108.573 50.1392 110.891 51.2987 113.278 52.1402C115.996 53.094 118.836 53.6176 121.693 53.7859C121.467 52.907 121.258 52.0467 121.031 51.1678C117.076 53.281 114.323 57.4888 113.121 61.9957C112.389 64.7448 112.424 67.6061 112.72 70.4113C112.807 71.1967 112.894 71.9634 112.999 72.7489C113.016 72.9359 113.051 73.1042 113.068 73.2912C113.086 73.366 113.086 73.4408 113.103 73.5156C113.156 73.871 113.069 73.2912 113.103 73.5343C113.156 73.8897 113.19 74.2637 113.243 74.619C113.365 75.7224 113.487 76.8257 113.504 77.9291C113.522 78.7707 113.504 79.6122 113.522 80.4538C113.556 81.7815 113.696 83.1093 113.87 84.4371C114.706 84.194 115.543 83.9322 116.396 83.6891C115.055 78.6024 112.267 74.0019 108.608 70.5048C104.949 66.9889 100.419 64.4269 95.6099 63.3609C92.9266 62.7625 90.1388 62.5755 87.4207 62.9495C87.6472 63.8284 87.8562 64.6887 88.0827 65.5676C92.369 63.043 95.2613 58.4986 96.7772 53.5989C97.5613 51.0555 97.9098 48.4187 98.1014 45.7444C98.328 42.7896 98.3977 39.8348 98.2931 36.8801C98.1712 33.4952 97.84 30.1102 97.1954 26.8001C97.056 26.0895 96.2371 25.6033 95.5924 25.8277C94.8432 26.0334 94.4947 26.744 94.6341 27.5108Z" fill="#F7795B"/>
</svg>
